<svg xmlns="http://www.w3.org/2000/svg" viewBox="0 0 338.46 171.22"><defs><style>.cls-1{fill:#fff;}</style></defs><title>gm-logo</title><g id="Layer_2" data-name="Layer 2"><g id="Layer_1-2" data-name="Layer 1"><path class="cls-1" d="M27.56,148.37H11.49L8.73,156.2H2.17l13.74-38.41H23.2L36.94,156.2H30.32Zm-1.77-5.14L19.55,125.4l-6.29,17.83Z"/><path class="cls-1" d="M70.44,125.79V156.2H64.15v-3.58a10.19,10.19,0,0,1-3.89,2.95,12.29,12.29,0,0,1-5.11,1.07,13.58,13.58,0,0,1-6.43-1.49,10.79,10.79,0,0,1-4.47-4.41,14.4,14.4,0,0,1-1.63-7.07V125.79h6.24v17a8.82,8.82,0,0,0,2,6.26,7.28,7.28,0,0,0,5.58,2.18,7.37,7.37,0,0,0,5.6-2.18,8.74,8.74,0,0,0,2.07-6.26v-17Z"/><path class="cls-1" d="M97.24,126.7a12.06,12.06,0,0,1,4.28,3.51v-4.42h6.34V156.7a15.62,15.62,0,0,1-1.76,7.48,12.75,12.75,0,0,1-5.11,5.16,16,16,0,0,1-8,1.88,17.31,17.31,0,0,1-10.27-2.9,10.72,10.72,0,0,1-4.64-7.87h6.24a6.79,6.79,0,0,0,3.06,3.84A10.44,10.44,0,0,0,93,165.75a8.36,8.36,0,0,0,6.15-2.32c1.56-1.54,2.35-3.79,2.35-6.73v-5.08A13.07,13.07,0,0,1,91,156.7a13.58,13.58,0,0,1-7.25-2,14.27,14.27,0,0,1-5.19-5.63,17.34,17.34,0,0,1-1.91-8.2,16.78,16.78,0,0,1,1.91-8.11A13.87,13.87,0,0,1,91,125.29,13.47,13.47,0,0,1,97.24,126.7Zm3,8.8a9.18,9.18,0,0,0-3.4-3.53,8.83,8.83,0,0,0-4.52-1.21,8.93,8.93,0,0,0-7.92,4.66,10.82,10.82,0,0,0-1.3,5.44,11.26,11.26,0,0,0,1.3,5.52A9,9,0,0,0,87.8,150a8.85,8.85,0,0,0,9,0,9.06,9.06,0,0,0,3.4-3.56,12.2,12.2,0,0,0,0-11Z"/><path class="cls-1" d="M159.39,126.78a10.87,10.87,0,0,1,4.47,4.42,14.36,14.36,0,0,1,1.63,7.06V156.2h-6.24v-17a8.82,8.82,0,0,0-2-6.26,7.28,7.28,0,0,0-5.58-2.18,7.37,7.37,0,0,0-5.6,2.18A8.74,8.74,0,0,0,144,139.2v17h-6.24v-17a8.82,8.82,0,0,0-2-6.26,7.28,7.28,0,0,0-5.57-2.18,7.38,7.38,0,0,0-5.61,2.18,8.74,8.74,0,0,0-2.07,6.26v17h-6.29V125.79h6.29v3.48a10.51,10.51,0,0,1,3.92-2.93,12.46,12.46,0,0,1,5.08-1,13.5,13.5,0,0,1,6.51,1.55,10.53,10.53,0,0,1,4.42,4.47,10.19,10.19,0,0,1,4.31-4.39,12.77,12.77,0,0,1,6.29-1.63A13.7,13.7,0,0,1,159.39,126.78Z"/><path class="cls-1" d="M201.14,143.34H177.9a8.4,8.4,0,0,0,8.67,8.06,7.36,7.36,0,0,0,7.18-4.25h6.78a13.65,13.65,0,0,1-5,6.87,14.62,14.62,0,0,1-9,2.68,15.49,15.49,0,0,1-7.81-2,14,14,0,0,1-5.41-5.52,16.78,16.78,0,0,1-2-8.25,17.21,17.21,0,0,1,1.91-8.25,13.29,13.29,0,0,1,5.35-5.49,15.92,15.92,0,0,1,7.92-1.94,15.48,15.48,0,0,1,7.67,1.88,13.31,13.31,0,0,1,5.25,5.27,15.91,15.91,0,0,1,1.87,7.81A19.34,19.34,0,0,1,201.14,143.34Zm-6.35-5.08a7.14,7.14,0,0,0-2.48-5.57,8.87,8.87,0,0,0-6-2.1,8.08,8.08,0,0,0-5.57,2.07,8.62,8.62,0,0,0-2.76,5.6Z"/><path class="cls-1" d="M229.32,126.78a10.69,10.69,0,0,1,4.44,4.42,14.47,14.47,0,0,1,1.6,7.06V156.2h-6.23v-17a8.82,8.82,0,0,0-2-6.26,7.28,7.28,0,0,0-5.57-2.18,7.36,7.36,0,0,0-5.6,2.18,8.74,8.74,0,0,0-2.07,6.26v17h-6.3V125.79h6.3v3.48a10.43,10.43,0,0,1,3.94-2.93,12.6,12.6,0,0,1,5.11-1A13.7,13.7,0,0,1,229.32,126.78Z"/><path class="cls-1" d="M250.71,130.92v16.84a3.18,3.18,0,0,0,.8,2.45,3.94,3.94,0,0,0,2.73.75h3.86v5.24h-5q-4.24,0-6.51-2t-2.26-6.46V130.92h-3.59v-5.13h3.59v-7.56h6.35v7.56h7.39v5.13Z"/><path class="cls-1" d="M264.23,120.6a4,4,0,0,1,2.87-6.9,4.06,4.06,0,0,1,2.81,6.9,3.8,3.8,0,0,1-2.81,1.16A3.87,3.87,0,0,1,264.23,120.6Zm6,5.19V156.2H263.9V125.79Z"/><path class="cls-1" d="M300.24,126.78a10.65,10.65,0,0,1,4.45,4.42,14.58,14.58,0,0,1,1.6,7.06V156.2h-6.24v-17a8.82,8.82,0,0,0-2-6.26,7.28,7.28,0,0,0-5.58-2.18,7.37,7.37,0,0,0-5.6,2.18,8.74,8.74,0,0,0-2.07,6.26v17h-6.29V125.79h6.29v3.48a10.46,10.46,0,0,1,3.95-2.93,12.58,12.58,0,0,1,5.1-1A13.67,13.67,0,0,1,300.24,126.78Z"/><path class="cls-1" d="M327,121.71V116h11.48V156.2h-6.34V121.71Z"/><path class="cls-1" d="M213.48,66.73v2.33h-4.62v15H206v-15h-4.65V66.73Z"/><path class="cls-1" d="M228.88,78.28H218.36a3.79,3.79,0,0,0,3.92,3.65A3.34,3.34,0,0,0,225.53,80h3.08a6.28,6.28,0,0,1-2.27,3.11,6.61,6.61,0,0,1-4.06,1.21,7,7,0,0,1-3.54-.89,6.27,6.27,0,0,1-2.45-2.5,7.62,7.62,0,0,1-.88-3.73,7.73,7.73,0,0,1,.86-3.74A6,6,0,0,1,218.69,71a7.26,7.26,0,0,1,3.59-.87,7,7,0,0,1,3.48.85,6,6,0,0,1,2.37,2.38,7.19,7.19,0,0,1,.85,3.54A8.44,8.44,0,0,1,228.88,78.28ZM226,76a3.25,3.25,0,0,0-1.13-2.52,4,4,0,0,0-2.72-.95,3.68,3.68,0,0,0-2.53.93A3.94,3.94,0,0,0,218.38,76Z"/><path class="cls-1" d="M231.69,73.48A6.48,6.48,0,0,1,234,71a6.31,6.31,0,0,1,3.29-.88,6.1,6.1,0,0,1,2.84.63,5.78,5.78,0,0,1,1.93,1.59v-2H245V84.11H242.1v-2a5.59,5.59,0,0,1-2,1.62,6.11,6.11,0,0,1-2.85.65,6,6,0,0,1-3.25-.91,6.56,6.56,0,0,1-2.34-2.55,7.9,7.9,0,0,1-.86-3.71A7.69,7.69,0,0,1,231.69,73.48Zm9.83,1.25a4.16,4.16,0,0,0-1.54-1.6,4,4,0,0,0-2-.55,4.07,4.07,0,0,0-3.59,2.11,5,5,0,0,0-.59,2.47,5.16,5.16,0,0,0,.59,2.5,4.13,4.13,0,0,0,1.55,1.63,3.93,3.93,0,0,0,2,.57,4.09,4.09,0,0,0,2-.55,4.15,4.15,0,0,0,1.54-1.62,5.59,5.59,0,0,0,0-5Z"/><path class="cls-1" d="M268.32,70.78a4.87,4.87,0,0,1,2,2,6.52,6.52,0,0,1,.74,3.2v8.13h-2.83v-7.7a4,4,0,0,0-.92-2.84,3.73,3.73,0,0,0-5.06,0,3.94,3.94,0,0,0-.94,2.84v7.7H258.5v-7.7a4,4,0,0,0-.92-2.84,3.73,3.73,0,0,0-5.06,0,3.94,3.94,0,0,0-.94,2.84v7.7h-2.85V70.33h2.85v1.58a4.81,4.81,0,0,1,1.77-1.33,5.6,5.6,0,0,1,2.3-.47,6.07,6.07,0,0,1,3,.7,4.7,4.7,0,0,1,2,2,4.69,4.69,0,0,1,2-2,5.75,5.75,0,0,1,2.84-.73A6.19,6.19,0,0,1,268.32,70.78Z"/><path class="cls-1" d="M63.22,29.37a16.38,16.38,0,0,0-7-6.83,22.84,22.84,0,0,0-10.67-2.36q-10.59,0-17,7T22.22,45.72q0,12.39,6.71,19.35t18.45,7A22.26,22.26,0,0,0,61,67.94a23.08,23.08,0,0,0,8.11-11.75H41.38V40.1H88.89V60.41a42.76,42.76,0,0,1-8.24,15.2A43.38,43.38,0,0,1,65.9,87a45.54,45.54,0,0,1-20.18,4.35A47.72,47.72,0,0,1,22,85.5,41.3,41.3,0,0,1,5.81,69.35,47.46,47.46,0,0,1,0,45.72,47.82,47.82,0,0,1,5.81,22,41.39,41.39,0,0,1,22,5.81,47.42,47.42,0,0,1,45.59,0q16.1,0,27.14,7.79A36.77,36.77,0,0,1,87.36,29.37Z"/><path class="cls-1" d="M189.78,1V90.68H168V36.91L147.89,90.68H130.27l-20.18-53.9v53.9H88.25V1h25.8l25.16,62.07L164.11,1Z"/></g></g></svg>