<?xml version="1.0" encoding="utf-8"?>
<!-- Generator: Adobe Illustrator 22.1.0, SVG Export Plug-In . SVG Version: 6.00 Build 0)  -->
<svg version="1.1" id="Layer_1" xmlns="http://www.w3.org/2000/svg" xmlns:xlink="http://www.w3.org/1999/xlink" x="0px" y="0px"
	 viewBox="0 0 322 151" style="enable-background:new 0 0 322 151;" xml:space="preserve">
<style type="text/css">
	.st0{fill:#FFFFFF;}
</style>
<title>nkdr</title>
<g>
	<path class="st0" d="M1852.6,875.3c-0.4,0.1-6-7.8-6.5-8.5c-1.6-2-3.1-4-4.7-5.9c-0.2-0.3-1.8-2.5-2-2.4
		c-6.7,2.5-12.2,7.3-15.5,13.7c-0.1,0.2,2.1,2.8,1.9,2.5c1.5,2,3.1,4,4.7,6c1.6,2,3.1,4,4.7,5.9c0.2,0.3,2.1,2.3,2,2.4
		C1840.5,882.6,1845.9,877.8,1852.6,875.3z"/>
	<path class="st0" d="M1782.4,873.4c-0.3,0.2-7-6.9-7.6-7.5c-1.8-1.8-3.6-3.5-5.5-5.3c-0.3-0.2-2.1-2.2-2.3-2.1
		c-6.3,3.4-11.1,8.9-13.5,15.6c-0.1,0.2,2.5,2.5,2.2,2.2c1.8,1.8,3.6,3.5,5.4,5.3c1.8,1.8,3.6,3.5,5.5,5.3c0.3,0.2,2.3,2,2.3,2.1
		C1771.3,882.2,1776.1,876.7,1782.4,873.4z"/>
	<path class="st0" d="M1811.2,873.4c-0.3,0.2-7-6.9-7.6-7.5c-1.8-1.8-3.6-3.5-5.5-5.3c-0.3-0.2-2.1-2.2-2.3-2.1
		c-6.3,3.4-11.1,8.9-13.5,15.6c-0.1,0.2,2.5,2.5,2.2,2.2c1.8,1.8,3.6,3.5,5.4,5.3c1.8,1.8,3.6,3.5,5.5,5.3c0.3,0.2,2.3,2,2.3,2.1
		C1800.1,882.2,1804.9,876.7,1811.2,873.4z"/>
	<g>
		<path class="st0" d="M1654.2,936.5c-0.3-0.6-0.6-1.1-0.9-1.7c-0.1-0.2-0.1-0.4-0.3-0.5c-1.7-1.4-2-3.5-2.8-5.3c-0.4-1-0.7-2-1-3.1
			c-0.3-1.1-0.9-2-1.7-2.8c-0.3-0.3-0.5-0.5-0.8-0.8c-0.4-0.5-0.5-1-0.2-1.6c1.1-2.2,2.2-4.4,3.3-6.6c0.4-0.8,0.7-1.6,1-2.3
			c0.2-0.4,0.4-0.7,0.5-1.1c0,0,0,0,0,0c0.4-1.1,0.5-2.3,0.3-3.4c-0.2-0.8-0.4-1.8-0.7-2.6c-1.2-3.3-5.2-8.9-7.1-10.4
			c-1.9-1.4-2.2-1.5-5.5-2.3c-0.3-0.1-0.7-0.1-0.8-0.1c-0.3,0-0.7,0.1-1.2,0.1c-0.8,0.1-1.6,0.4-2.3,0.8c-1.1,0.6-1.5,0.6-2.4-0.3
			c-0.6-0.6-1.2-1.3-1.8-1.9c-0.7-0.8-1.6-1.3-2.6-1.6c-0.9-0.3-1.7-0.1-2.5,0.5c-1.2,1.1-1.7,2.4-1.7,4c0,0.3,0.1,0.6,0.2,0.9
			c0.9,1.4,1.9,2.8,3.6,3.4c0.4,0.1,0.8,0.3,1.2,0.4c1.1,0.4,2.1,0.7,2.9-0.7c0.1,0.4,0.1,0.6,0.2,0.8c0.1,0.9,0.1,1.8,0.2,2.6
			c0.2,1.3,0.5,2.5,0.7,3.7c0.1,0.6,0.2,1,0.9,1.1c0.9,0.2,1.2,1.1,0.6,1.9c-0.3,0.4-0.7,0.8-1.1,1.2c-0.6,0.7-1.3,0.9-2.2,0.8
			c-0.6-0.1-1.3,0-1.9,0.2c-1.1,0.3-1.7,1.4-1.2,2.4c0.6,1.2,0.1,2.2-0.6,3.1c-1.6,1.9-3.3,3.7-4.9,5.5c0,0-0.1,0-0.3,0.1
			c-0.5-1.1-1.3-1.9-2.3-2.6c-1.2-0.8-2.6-1-4-0.5c-0.3,0.1-0.6,0.2-0.7,0.3c-0.8,0.8-1.9,1.2-2.9,1.5c-0.5,0.2-1,0.5-1.4,0.8
			c-0.4,0.4-0.4,0.9,0.1,1.2c0.4,0.3,0.9,0.5,1.4,0.7c0.5,0.2,0.7,0.6,0.4,1c-0.3,0.5-0.7,1-1.1,1.4c-0.2,0.2-0.7,0.2-1,0.1
			c-1.1-0.3-2.1-0.5-3.3-0.2c-0.2,0.1-0.5,0.1-0.7,0c-2.1,1.8-5.2,4.6-5.4,6.1c-0.4,2.1-2.4,3.8-3.2,6.1c-0.5,1.5-0.6,4.4-0.6,6.2
			c0,0,0,0,0,0c0.1,0.5,0.1,1.1,0,1.6c-0.2,1-0.3,2,0,3.1c0,0.2,0.1,0.5,0.1,0.7c-0.1,1.7,0.4,3.2,1.1,4.7c0.5,1,0.7,2.1,0.6,3.3
			c-0.1,2.3-0.4,4.6-1,6.8c-0.8,2.9-1.7,5.8-2.4,8.8c-0.4,1.4-0.5,2.9-0.7,4.4c-0.1,0.6,0,1.2,0.5,1.7c0.5,0.5,0.5,1,0.2,1.6
			c-0.3,0.5-0.6,0.9-0.9,1.3c-0.6,0.9-1.3,1.8-1.9,2.8c-0.6,0.9-0.5,1.2,0.3,2c0.6,0.6,1.1,1.2,2.1,1.3c0.4,0,0.9,0.5,1.1,0.9
			c0.5,1,1.2,1.5,2.2,1.8c0.1,0,0.2,0.2,0.5,0.3c0,0,0,0,0,0c1.6,0.2,3.1,0.3,3.2-0.1c0.2-0.4,0.8-1.2,1.5-2.1
			c-0.2-0.1-0.4-0.2-0.7-0.4c-0.3-0.3-0.7-0.7-1.1-0.8c-1-0.3-1.5-1.1-1.6-2c-0.1-0.9-0.1-1.9-0.3-2.9c-0.1-0.9-0.4-1.9-0.6-3
			c0.7-0.6,0.8-1.5,1-2.5c0.4-3.4,1.5-6.5,3-9.5c0.7-1.4,1.3-2.9,1.6-4.5c0.2-1.2,0.3-2.4,0.6-3.7c0.2-1.3,0.5-2.6,0.8-3.9
			c0.2-0.7,0.9-1,1.6-0.7c0.4,0.2,0.8,0.5,1.3,0.8c0.5,0.3,1,0.7,1.6,0.9c1,0.4,1,0.4,0.8,1.4c-0.4,2.4-0.4,4.8-0.1,7.2
			c0.3,1.9,0,3.6-0.9,5.3c-0.2,0.3-0.2,0.8-0.1,1.1c0.7,1.9,1.3,3.7,2.1,5.5c0.4,0.9,1.3,1.4,1.4,1.3c0.2-0.3,9.4-5.9,9.3-6.3
			c0,0,0-0.1,0-0.1c-0.5-1.4-2.2-2.1-3.4-1.2c0,0,0,0,0,0c-0.3,0.2-0.7,0.5-1.1,0.5c-1.1-0.1-2.2-0.4-3.2-1.1
			c0.2-0.2,0.2-0.4,0.3-0.4c1.1-0.5,1.4-1.5,1.5-2.6c0.1-0.8,0.2-1.6,0.2-2.4c0.1-2.9,0.2-5.8,0.3-8.6c0.1-2.6-1.1-4.6-3.4-5.9
			c-0.4-0.2-0.8-0.6-1-1.1c-0.6-1.5-1.7-2.6-2.8-3.7c-0.5-0.5-1.1-1.1-1.5-1.7c-0.9-1.1-0.9-1.5-0.2-2.3c0.9-1.1,1.8-2.1,2.6-3.2
			c0.3-0.3,0.6-0.6,1-1c0.3,0.4,0.4,0.8,0.6,1.1c0.4-1.3,0.7-2.5,1-3.7c0.4-1.3,0.8-2.6,2-3.4c0.2-0.1,0.3-0.3,0.4-0.5
			c0.4-0.9,1.1-1.3,1.9-1.7c0.8-0.4,1.5-0.9,2.2-1.4c0.4-0.3,0.6-0.8,1-1.1c0.4-0.2,1-0.2,1.6-0.4c-0.6-1,0-1.6,0.7-2.2
			c0.3-0.2,0.6-0.5,0.8-0.8c1-1.1,2-2.2,2.8-3.4c0.6-0.9,1.2-1.8,2.2-2.4c0.3-0.2,0.6-0.5,0.8-0.8c0.9-1.2,1.9-2.1,3.1-2.9
			c1.1-0.7,2.2-1.6,3.3-2.4c0.6-0.5,0.9-1.1,1-1.9c0.1-1.2,0.2-1.2,1.6-1c0,0.5,0.1,1.1,0,1.6c-0.1,0.7-0.1,1.3,0,2
			c0.1,1.2-0.2,2.3-0.9,3.3c-0.9,1.3-1.4,2.8-1.7,4.3c-0.3,1.5-0.7,3-1,4.5c-0.2,0.8-0.1,1.5,0.1,2.3c0.4,1.5,0.6,3.1,0.9,4.6
			c0.3,1.7,0.7,3.4,1,5.1c0.1,0.7,0.4,1.4,0.6,2.1c0.1,0.3,0,0.7-0.2,0.8c-0.7,0.4-0.7,1-0.5,1.7c0.2,0.7,0.1,1.3-0.5,1.7
			c-0.8,0.6-1.6,1.2-2.5,1.7c-0.8,0.4-1.6,0.8-1.3,1.9v0c0.2,0,7.9-2.3,7.9-2.3l11.1-3.1l2.7-0.8c-0.1-0.1-0.2-0.1-0.3-0.2
			C1655.4,938.1,1654.6,937.3,1654.2,936.5z M1648.1,937.5c-0.5,0.6-1,1.2-1.4,1.8c-0.4,0.8-0.9,1.2-1.8,1.2c-0.5,0-1,0.1-1.5,0
			c-0.3,0-0.6-0.1-0.7-0.2c-0.5-0.7-1.2-1.3-1.3-2.3c-0.1-2-0.2-4-0.2-6c0-1,0-2.1-0.3-3.1c-0.1-0.5-0.3-1-0.4-1.4
			c-0.4-1.8,0.4-3,1.7-4.1c0.9,0.6,1.4,1.4,1.9,2.1c1.3,2,2.5,4,3.8,6c0.6,0.9,1,1.7,0.8,2.8c-0.1,0.3,0,0.6,0.1,0.9
			C1649,936.2,1648.7,936.9,1648.1,937.5z"/>
	</g>
	<g>
		<path class="st0" d="M1691,978.3c0,0-0.1,0-0.1,0c-0.4-0.1-1.7-0.1-4-0.2l-1,3.6c2,0,3.5-0.1,4.4-0.1c0.2,0,0.3,0.1,0.3,0.3
			c0,0.9-0.1,1.6-0.3,2.2c0,0.2-0.1,0.3-0.3,0.3c0,0,0,0-0.1,0c-0.4-0.1-2-0.1-4.7-0.2l-1.1,4.6c-0.1,0.5-0.3,1.1-0.5,2.1
			c-0.1,0.2-0.2,0.4-0.4,0.4c-0.1,0-0.1,0-0.2-0.1c-0.1,0-0.3-0.2-0.8-0.4c-0.2-0.1-0.5-0.2-0.7-0.2c-0.3-0.1-0.5-0.3-0.5-0.4
			c0,0,0.6-2,1.7-5.9h-1.2c-1,0-1.7,0-2.2,0c-0.3,1.5-0.9,3.7-1.6,6.6c-0.1,0.2-0.2,0.3-0.4,0.3c-0.1,0-0.1,0-0.2-0.1
			s-0.3-0.2-0.8-0.4c-0.2-0.1-0.6-0.2-1-0.4c-0.1-0.1-0.2-0.2-0.2-0.3c0,0,0.6-1.9,1.7-5.7c-0.4,0-1,0-1.8,0.1
			c-0.8,0-1.4,0.1-1.8,0.1c-0.2,0-0.3-0.1-0.3-0.4c0-0.1,0-0.4,0.1-0.6c0.1-0.3,0.1-0.5,0.1-0.6c0-0.2,0-0.6,0.1-1
			c0.1-0.2,0.2-0.3,0.4-0.3c0.5,0,1.2,0,2.1,0.1c1,0,1.7,0.1,2.1,0.1l0.9-3.6c-0.5,0-1.2,0-2.2,0.1c-1,0.1-1.7,0.1-2.2,0.1
			c-0.2,0-0.3-0.1-0.3-0.4c0-0.1,0-0.3,0.1-0.6c0.1-0.3,0.1-0.5,0.1-0.6c0-0.3,0-0.6,0.1-1c0.1-0.2,0.2-0.3,0.4-0.3
			c0.6,0,1.4,0,2.4,0.1c1.2,0,2,0.1,2.4,0.1c0.3-1,0.7-2.6,1.2-4.7c0.1-0.5,0.2-1.1,0.5-2c0.1-0.2,0.2-0.3,0.4-0.3
			c0.1,0,0.1,0,0.2,0c0.2,0.1,0.5,0.3,0.9,0.5c0.2,0.1,0.5,0.2,0.9,0.3c0.1,0,0.1,0.1,0.1,0.3c0,0.2-0.6,2.2-1.7,6h3.4
			c0.5-2,0.9-3.5,1.2-4.6c0.1-0.5,0.2-1.1,0.5-2c0.1-0.2,0.2-0.4,0.4-0.4c0.1,0,0.1,0,0.2,0.1c0.2,0.1,0.5,0.3,0.9,0.5
			c0.2,0.1,0.5,0.2,0.9,0.3c0.1,0.1,0.1,0.2,0.1,0.3c0,0-0.6,1.9-1.7,5.8c1.6,0,2.9-0.1,3.6-0.1c0.2,0,0.3,0.1,0.3,0.3
			c0,0.8-0.1,1.5-0.3,2.1C1691.2,978.2,1691.2,978.3,1691,978.3z M1684.4,978.1c-0.4,0-0.9,0-1.3,0l-2.1,0c-0.4,1.3-0.7,2.5-1,3.7
			h3.4C1683.7,981,1684,979.7,1684.4,978.1z"/>
		<path class="st0" d="M1727.4,976.6c0,0-0.9,2-2.7,5.9c-1.8,4-2.9,6.2-3.2,6.7c-0.1,0.2-0.1,0.3-0.2,0.3c0,0-0.1,0.1-0.3,0.1
			c-0.2,0.1-0.9,0.1-2.1,0.1c-1.1,0-1.7,0-2-0.1c-0.2,0-0.3-0.1-0.4-0.1c0,0-0.1-0.1-0.2-0.3c-0.1-0.1-0.3-0.8-0.8-2.1l-1.6-4.1
			l-1.6,4.1c-0.2,0.5-0.4,1.1-0.8,2c-0.1,0.2-0.2,0.3-0.2,0.3c0,0-0.2,0.1-0.3,0.1c-0.3,0.1-1,0.1-1.9,0.1c-1.2,0-1.9,0-2.1-0.1
			c-0.2,0-0.3-0.2-0.4-0.4c-3.8-7.9-5.8-12.1-5.8-12.7c0-0.8,0-2,0.1-3.5c0.1-1.6,0.1-2.7,0.1-3.5c0-0.3,0.1-0.5,0.3-0.5
			c0.6,0,1.4,0,2.5,0.1c1.1,0,2,0.1,2.5,0.1c0.2,0,0.3,0.1,0.3,0.3c0,0.8,0,2-0.1,3.5c-0.1,1.6-0.1,2.8-0.1,3.5
			c0,0.3,0.4,1.2,1.1,2.8c0.6,1.4,1.1,2.4,1.4,2.9c0.1,0.3,0.2,0.4,0.3,0.4c0.1,0,0.3-0.5,0.6-1.4c0.9-2.6,1.4-4.2,1.4-4.7
			c0-0.9,0-2,0-3.4c0-2,0-3.2,0-3.4c0-0.2,0-0.3,0-0.3c0,0,0.1-0.1,0.3-0.1c0.5-0.1,1.4-0.1,2.6-0.1c1.9,0,2.8,0.1,2.8,0.4
			c0,0.7,0,1.7-0.1,3.1c0,1.3-0.1,2.4-0.1,3.1v0.7c0,0.5,0.5,2.1,1.5,4.8c0.3,0.9,0.5,1.4,0.6,1.4c0,0,0.1-0.1,0.3-0.4
			c0.3-0.5,0.7-1.4,1.3-2.8c0.7-1.5,1-2.5,1-2.8c0-0.8,0-2-0.1-3.6c-0.1-1.6-0.1-2.8-0.1-3.5c0-0.2,0.1-0.3,0.3-0.3
			c0.6,0,1.4,0,2.6-0.1c1.2,0,2-0.1,2.6-0.1c0.2,0,0.3,0.2,0.3,0.6c0,0.8,0,1.9,0.1,3.5C1727.3,974.7,1727.4,975.8,1727.4,976.6z"/>
		<path class="st0" d="M1751.6,985.1c0,0.4-0.1,1.2-0.2,2.3c-0.2,1.2-0.3,2-0.5,2.2c-0.1,0.2-0.3,0.3-0.5,0.3c-0.1,0-0.2,0-0.4,0
			c-0.7-0.1-2.8-0.1-6.3-0.1c-0.8,0-1.9,0-3.4,0c-1.5,0-2.6,0-3.3,0c-0.3,0-0.5-0.1-0.5-0.4c0-1.1,0.1-2.7,0.2-4.9
			c0.1-2.2,0.2-3.8,0.2-4.9c0-1.1-0.1-3.2-0.2-6.2c0-0.8-0.1-2-0.2-3.5l0-0.2c0-0.2,0.1-0.3,0.4-0.3c0.7,0,1.8,0,3.3,0.1
			c1.5,0,2.5,0.1,3.3,0.1c0.7,0,1.8,0,3.2-0.1c1.4,0,2.5-0.1,3.2-0.1c0.5,0,0.8,0.2,0.9,0.6c0,0.2,0.1,0.9,0.2,2
			c0.1,1.1,0.2,1.8,0.2,2.1c0,0.2-0.1,0.3-0.3,0.3c-0.1,0-0.2,0-0.3,0c-2.6-0.2-4.9-0.3-7-0.3c-0.5,0-0.8,0.1-1,0.4
			c0,0.1-0.1,0.5-0.1,1.1c0,0.7,0.1,1.1,0.3,1.3c0.2,0.2,0.5,0.3,1,0.3c0.1,0,0.3,0,0.6,0c0.3,0,0.5,0,0.7,0c1.2,0,2.5,0,3.7-0.1
			c0.1,0,0.4,0,0.8-0.1c0.3,0,0.6-0.1,0.8-0.1c0.2,0,0.4,0.1,0.4,0.3c0-0.2-0.1,0.5-0.3,2.2c-0.1,0.8-0.1,1.6-0.1,2.3
			c0,0.2-0.1,0.3-0.4,0.3l-1.3-0.1c-0.6-0.1-1.8-0.1-3.8-0.1h-1.6c-0.4,0-0.6,0.1-0.7,0.3c0,0,0,0.4,0,0.9c0,0.7,0,1.2,0.1,1.4
			c0.2,0.4,0.8,0.6,1.9,0.7c0,0,0.7,0,2.1,0c0.5,0,1.3,0,2.3-0.1c1-0.1,1.8-0.1,2.3-0.1C1751.5,984.6,1751.6,984.7,1751.6,985.1z"/>
		<path class="st0" d="M1772.6,995.8c-0.8,0-2,0-3.6-0.1c-1.6,0-2.8-0.1-3.6-0.1c-0.7,0-1.7,0-3.1,0.1c-1.4,0-2.4,0.1-3.1,0.1
			c-0.2,0-0.3-0.2-0.3-0.5c0-0.4,0-1,0.1-1.7c0.1-0.8,0.1-1.4,0.1-1.8c0-0.2,0.1-0.3,0.3-0.3c0.7,0,1.8,0,3.3,0.1
			c1.5,0,2.6,0.1,3.3,0.1c0.8,0,1.9,0,3.4,0c1.5,0,2.7,0,3.4,0c0.2,0,0.3,0.1,0.3,0.3c0,0.4,0,1-0.1,1.8c-0.1,0.8-0.1,1.4-0.1,1.8
			C1773,995.7,1772.8,995.8,1772.6,995.8z"/>
		<path class="st0" d="M1798.5,986.3c0,0.2-0.1,0.4-0.3,0.6c-1.8,2.1-4.2,3.2-7.2,3.2c-3.1,0-5.5-1-7.4-3.1c-1.8-2-2.8-4.6-2.8-7.6
			c0-3,0.9-5.5,2.7-7.6c1.9-2.2,4.3-3.3,7.2-3.3c3.2,0,5.7,1,7.5,2.9c0.2,0.2,0.3,0.4,0.3,0.6c0,0.2-0.3,0.9-1,2.1
			c-0.7,1.2-1.1,1.9-1.3,2c-0.1,0.1-0.2,0.1-0.3,0.1c0,0-0.3-0.2-0.7-0.6c-0.5-0.5-1-0.8-1.6-1.1c-0.8-0.4-1.6-0.6-2.4-0.6
			c-1.4,0-2.6,0.5-3.4,1.6c-0.8,1-1.2,2.2-1.2,3.7c0,1.5,0.4,2.7,1.2,3.7c0.9,1.1,2,1.6,3.4,1.6c0.9,0,1.7-0.2,2.4-0.6
			c0.5-0.2,1-0.6,1.5-1c0.4-0.4,0.7-0.6,0.7-0.6c0.1,0,0.2,0.1,0.3,0.2c0.2,0.2,0.6,0.8,1.3,1.8
			C1798.2,985.6,1798.5,986.2,1798.5,986.3z"/>
		<path class="st0" d="M1826.5,989.3c0,0.2-0.1,0.3-0.4,0.4c-0.3,0.1-1.2,0.1-2.7,0.1c-1.4,0-2.3,0-2.7-0.1
			c-0.3-0.1-0.5-0.3-0.6-0.7c-0.3-1.4-0.6-2.2-0.8-2.3c-0.2-0.1-1.5-0.1-3.9-0.1c-1.7,0-2.5,0-2.7,0.1c-0.2,0.2-0.4,0.7-0.6,1.6
			c-0.2,0.8-0.4,1.3-0.7,1.3c-0.3,0.1-1.4,0.1-3.3,0.1c-1.5,0-2.2-0.1-2.2-0.4c0-0.3,1.1-3.4,3.3-9.4c2.4-6.5,3.7-10.1,3.9-10.7
			c0.1-0.4,0.3-0.6,0.4-0.6c0.3,0,0.7,0,1.2,0.1s1,0.1,1.2,0.1c0.3,0,0.7,0,1.2-0.1c0.5,0,0.9-0.1,1.2-0.1c0.2,0,0.4,0.2,0.5,0.5
			c0.5,1,1.9,4.6,4.2,10.6C1825.3,985.9,1826.5,989,1826.5,989.3z M1816.1,975.9c-0.2,0.4-0.6,1.4-1,2.8c-0.5,1.5-0.8,2.4-0.8,2.7
			c0,0.2,0.3,0.3,0.9,0.3c0.3,0,0.8,0,1.5,0c0.6,0,1-0.1,1.1-0.2c0,0,0-0.1,0-0.2c0-0.3-0.2-1.2-0.7-2.7
			C1816.6,977.2,1816.3,976.3,1816.1,975.9z"/>
		<path class="st0" d="M1854.6,969.5c0,1.1,0,2.8-0.1,5c-0.1,2.2-0.1,3.9-0.1,5v9.7c0,0.3-0.1,0.4-0.4,0.4c-0.2,0-0.6,0-1.1,0
			c-0.5,0-0.8,0-1.1,0c-0.3,0-0.6,0-1.1-0.1c-0.5,0-0.9-0.1-1.1-0.1c-0.2,0-0.4-0.2-0.6-0.5c-0.7-0.9-2.3-3.1-4.8-6.3
			c-0.7-0.9-1.7-2.3-3.1-4c0-0.1-0.1-0.1-0.2-0.2c-0.1,0.1-0.1,0.2-0.1,0.3c0,1.1,0,2.8,0.1,5.1c0.1,2.3,0.1,4,0.1,5.1
			c0,0.3-0.1,0.5-0.4,0.5h-5.1c-0.3,0-0.4-0.2-0.4-0.5c0-1.1,0.1-2.7,0.2-4.8c0.1-2.1,0.2-3.7,0.2-4.8c0-1.1,0-2.8-0.1-5
			c-0.1-2.2-0.1-3.9-0.1-5c0-0.2,0.2-0.3,0.6-0.3c0.6,0,1.3,0,2.1-0.1c0.2,0,0.6-0.1,1.2-0.2c0.5-0.1,0.9-0.1,1.2-0.1
			c0.1,0,0.3,0.2,0.5,0.5l5.5,7.5c0.5,0.7,1.2,1.7,2.2,3c0.2,0.3,0.5,0.5,0.6,0.5c0.1,0,0.2-0.4,0.2-1.1c0-1-0.1-2.6-0.2-4.6
			c-0.1-2.1-0.2-3.6-0.2-4.7c0-0.4,0.1-0.5,0.3-0.5c0.6,0,1.5,0,2.7-0.1c1.2,0,2.1-0.1,2.7-0.1
			C1854.5,969.1,1854.6,969.2,1854.6,969.5z"/>
	</g>
	<path class="st0" d="M1762.6,899.7c-1.5,1.5-2.7,3-3.6,4.5C1760,902.6,1761.2,901,1762.6,899.7z"/>
	<path class="st0" d="M1763.9,898.6c-0.2,0.4-0.6,0.7-1.3,1.1C1763,899.3,1763.4,899,1763.9,898.6z"/>
	<path class="st0" d="M1760.4,922c-1-1.5-1.8-3-2.3-4.7C1758.6,918.9,1759.4,920.4,1760.4,922z"/>
	<path class="st0" d="M1594.7,1005.6c7.9-6.7,15.1-14.3,22.5-21.5c5.7-5.6,11.4-11.2,17.1-16.8c10.6-10.5,20.9-21.6,32.7-30.8
		c6.6-5.2,13.6-10.1,21.4-13.3c3.3-1.4,6.8-2.4,10.4-2.6c5-0.2,9.2,1.7,13.3,4.5c1,0.7-1.2-1-0.7-0.6c-1.5-1.2-2.9-2.3-4.4-3.5
		c-3-2.4-6-4.8-9.2-7c-3.4-2.3-7.1-4.6-11.3-4.9c-3.2-0.2-6.4,0.3-9.5,1.3c-7.1,2.3-13.6,6.3-19.6,10.6
		c-7.8,5.5-15.1,11.8-21.8,18.6c-16.6,16.9-33.5,33.6-50.7,49.9c-7.1,6.7-14.5,12.6-24.5,13.4c-10.6,0.9-20.4-3.4-29.4-8.4
		c0.7,0.4,1.6,1.3,2.1,1.7c1.7,1.4,3.5,2.7,5.2,4.1c2.4,1.9,4.8,4.2,7.5,5.7c7.8,4.3,16.1,8.2,25.2,8.5
		C1580.1,1014.8,1587.9,1011.4,1594.7,1005.6z"/>
	<path class="st0" d="M1875.3,910.9c-1.7-1.4-3.5-2.7-5.3-4.1c-2.5-1.9-4.9-4.1-7.5-5.6c-5.8-3.4-13-5-19.1-1.3
		c-2.9,1.8-5.3,4.3-7.6,6.8c-1,1-2,2.1-2.9,3.2c-2,2.2-3.9,4.5-5.8,6.7c-1.1,1.3-2.3,2.7-3.5,4c-0.2-0.1-0.5-0.3-0.6-0.4
		c-0.7-0.7-1.4-1.4-2.2-2c-1.5-1.4-3.1-2.6-4.8-3.9c-2.9-2.3-11.4-8.8-11.6-8.8c-10.6-7.6-23.2-14.6-35.8-9.6
		c-1.7,0.7-3.4,1.6-4.8,2.8c-0.4,0.3-0.8,0.7-1.3,1.1c-1.4,1.3-2.6,2.9-3.6,4.5c-0.3,0.6-0.6,1.3-0.9,1.9c0,0,0,0,0,0
		c-0.8,2.1-1.2,4.2-1.1,6.3c0,0,0,0,0.1,0c0.1,1.7,0.4,3.2,0.9,4.7c0.6,1.7,1.4,3.3,2.3,4.7c0,0.1,0.1,0.1,0.1,0.2
		c2.2,3.2,5.1,5.9,8.2,8.4c-4.9,5.5-10.2,10.4-17,13.5c-6.2,2.8-12.9,2.8-19.5,1.6c-1.8-0.3-3.6-0.8-5.3-1.4c-0.1,0-0.3-0.1-0.4-0.2
		c-0.2-0.1-0.4-0.1-0.6-0.2c-0.3-0.1-0.5-0.2-0.7-0.3c0,0,0,0,0,0c-0.3-0.1-0.5-0.2-0.8-0.3c-0.2-0.1-0.3-0.1-0.5-0.2
		c-0.1,0-0.2-0.1-0.3-0.1c-1.4-0.6-2.8-1.4-4.1-2.2c-2.4-1.6-4.9-3.2-7.1-5.1c1.3,1.2,2.4,2.7,3.6,4c1.7,1.8,3.4,3.4,5.3,5
		c5.2,4.3,11.2,7.5,17.5,9.7c3.1,1.1,6.2,1.8,9.3,2.5c4.5,1,8.8,1.4,13.3,0.4c3.7-0.9,7.2-2.5,10.4-4.6c5.2-3.5,9.6-8.1,13.8-12.8
		c0.7,0.5,1.3,1,2,1.4c1.7,1.1,3.4,2.2,5.2,3c6.3,3,13.9,4.5,20.8,3.6c10.3-1.3,17.8-7.8,24.6-15.3c5.8-6.4,11-13.6,17-18.9
		c2.6-2.3,5.5-4.1,9.1-4.5c4.7-0.6,9.3,1,13.3,3.4C1876.8,912.2,1875.9,911.4,1875.3,910.9z M1784.2,913.4c-4.2,3.9-8,8.5-11.8,13
		c-0.2-0.8-0.3-1.6-0.3-2.4c-0.3-5.6,2.7-11,7.2-14.3c7-5.2,15.5-4.8,23.3-2.2c-0.7-0.1-1.4-0.2-2.1-0.3
		C1794,906.7,1788.7,909.1,1784.2,913.4z M1808.9,933.1c-5.9,3.3-12.3,4.1-18.8,3.3c-0.4,0-0.8-0.1-1.2-0.2c-0.1,0-0.2,0-0.3,0
		c2-2.3,4-4.7,6-6.8c4.8-5.2,9.8-10.1,17.2-10.7c3.7-0.3,7.5,0.4,10.9,1.8c0.2,0.1,0.5,0.3,0.8,0.3
		C1819.2,925.5,1814.6,930,1808.9,933.1z"/>
	<path class="st0" d="M1710.8,949.5c-3,0-6.2-0.3-8.8-0.5c-2.9-0.3-6-1-8.9-2c-3.3-1.1-5.5-3.3-6.3-6.2c-0.8-2.9,0.2-6.1,2.5-8.9
		c2.6-3.1,5.4-6.3,8.1-9.3c0.6-0.7,1.2-1.3,1.8-2c-0.3,7.5,2.3,10.5,10.3,12.8c5.2,1.5,9.8,2.2,14.1,2.2c3.7,0,7.3-0.5,10.9-1.6
		l1.9-0.6l-1.2-1.6c-1.1-1.5-2.2-2.9-3.2-4.2c-2.2-2.9-4.3-5.6-6.4-8.3c-2.4-3-4.8-6-7.2-8.9c-2.3-2.8-4.7-5.7-7-8.6
		c-1-1.3-1.2-2.2,0.4-3.9c3-3.2,5.9-6.5,8.9-10c0.8-1,1.7-2,2.6-3c3.9,8,9.7,13.9,15.4,19.5c0.7,0.7,1.5,1.5,2.2,2.2
		c2,2,3.8,4.9,5.2,8.4c1.7,4.2,1,8.3-2,11.8c-4.1,4.8-8.5,9.8-12.9,14.7C1726.1,947,1719.8,949.5,1710.8,949.5z"/>
</g>
<g>
	<path class="st0" d="M293.5,19.3c-0.3,0.1-5.4-7.1-5.9-7.7c-1.4-1.8-2.8-3.6-4.3-5.4c-0.2-0.3-1.6-2.3-1.8-2.2
		c-6.1,2.3-11,6.7-14,12.4c-0.1,0.1,1.9,2.6,1.7,2.3c1.4,1.8,2.8,3.6,4.2,5.4c1.4,1.8,2.8,3.6,4.3,5.4c0.2,0.2,1.9,2.1,1.8,2.2
		C282.5,26,287.4,21.6,293.5,19.3z"/>
	<path class="st0" d="M230,17.6c-0.3,0.2-6.3-6.3-6.9-6.9c-1.6-1.6-3.3-3.2-4.9-4.8c-0.2-0.2-1.9-2-2.1-1.9
		c-5.7,3.1-10,8.1-12.2,14.2c-0.1,0.1,2.2,2.3,2,2c1.6,1.6,3.3,3.2,4.9,4.8c1.6,1.6,3.3,3.2,4.9,4.8c0.2,0.2,2.1,1.8,2.1,1.9
		C220,25.6,224.3,20.6,230,17.6z"/>
	<path class="st0" d="M256,17.6c-0.3,0.2-6.3-6.3-6.9-6.9c-1.6-1.6-3.3-3.2-4.9-4.8c-0.2-0.2-1.9-2-2.1-1.9
		c-5.7,3.1-10,8.1-12.2,14.2c-0.1,0.1,2.2,2.3,2,2c1.6,1.6,3.3,3.2,4.9,4.8c1.6,1.6,3.3,3.2,4.9,4.8c0.2,0.2,2.1,1.8,2.1,1.9
		C246,25.6,250.3,20.6,256,17.6z"/>
	<g>
		<path class="st0" d="M114,74.9c-0.3-0.5-0.6-1-0.9-1.5c-0.1-0.2-0.1-0.3-0.3-0.5c-1.5-1.3-1.8-3.2-2.5-4.9
			c-0.4-0.9-0.6-1.8-0.9-2.8c-0.3-1-0.8-1.8-1.5-2.5c-0.2-0.2-0.5-0.5-0.7-0.7c-0.4-0.4-0.4-0.9-0.2-1.5c1-2,2-4,3-6
			c0.3-0.7,0.6-1.4,0.9-2.1c0.2-0.4,0.3-0.7,0.5-1c0,0,0,0,0,0c0.4-1,0.5-2.1,0.2-3.1c-0.2-0.8-0.4-1.7-0.6-2.4
			c-1.1-3-4.7-8.1-6.4-9.4c-1.7-1.3-2-1.4-5-2.1c-0.2-0.1-0.6-0.1-0.8-0.1c-0.3,0-0.7,0.1-1.1,0.1c-0.7,0.1-1.4,0.3-2,0.7
			c-1,0.6-1.4,0.5-2.2-0.3c-0.6-0.6-1.1-1.2-1.6-1.8c-0.6-0.7-1.5-1.2-2.4-1.5c-0.8-0.3-1.6-0.1-2.2,0.5c-1.1,1-1.5,2.2-1.6,3.6
			c0,0.3,0.1,0.6,0.2,0.8c0.8,1.3,1.8,2.5,3.3,3.1c0.4,0.1,0.7,0.2,1.1,0.4c1,0.4,1.9,0.6,2.6-0.6c0.1,0.4,0.1,0.5,0.1,0.7
			c0.1,0.8,0.1,1.6,0.2,2.4c0.2,1.1,0.4,2.3,0.6,3.4c0.1,0.5,0.2,0.9,0.8,1c0.8,0.2,1,1,0.5,1.7c-0.3,0.4-0.6,0.7-1,1.1
			c-0.5,0.6-1.2,0.8-2,0.7c-0.6,0-1.2,0-1.7,0.2c-1,0.3-1.5,1.3-1.1,2.2c0.5,1.1,0.1,2-0.5,2.8c-1.4,1.7-3,3.3-4.4,5
			c0,0-0.1,0-0.3,0.1c-0.4-1-1.2-1.7-2.1-2.3c-1.1-0.8-2.3-0.9-3.6-0.5c-0.2,0.1-0.5,0.1-0.7,0.3c-0.7,0.8-1.7,1.1-2.6,1.4
			c-0.4,0.2-0.9,0.4-1.2,0.7c-0.4,0.3-0.3,0.8,0.1,1.1c0.4,0.3,0.8,0.4,1.2,0.6c0.5,0.2,0.6,0.5,0.4,0.9c-0.3,0.5-0.6,0.9-1,1.3
			c-0.2,0.2-0.6,0.2-0.9,0.1c-1-0.3-1.9-0.4-3-0.2c-0.2,0-0.4,0-0.7,0c-1.9,1.6-4.7,4.1-4.9,5.5c-0.3,1.9-2.2,3.5-2.9,5.5
			c-0.5,1.4-0.6,4-0.6,5.6c0,0,0,0,0,0c0.1,0.5,0.1,1,0,1.4c-0.2,1-0.2,1.9,0,2.8c0,0.2,0.1,0.4,0.1,0.6c-0.1,1.5,0.3,2.9,1,4.2
			c0.5,0.9,0.6,1.9,0.6,3c-0.1,2.1-0.4,4.2-0.9,6.2c-0.7,2.7-1.5,5.3-2.2,8c-0.3,1.3-0.5,2.7-0.7,4c-0.1,0.6,0,1.1,0.5,1.5
			c0.5,0.4,0.4,0.9,0.1,1.4c-0.2,0.4-0.5,0.8-0.8,1.2c-0.6,0.8-1.2,1.7-1.7,2.5c-0.5,0.8-0.5,1.1,0.2,1.8c0.5,0.5,1,1.1,1.9,1.2
			c0.4,0,0.8,0.5,1,0.8c0.4,0.9,1.1,1.4,2,1.7c0.1,0,0.2,0.2,0.4,0.3c0,0,0,0,0,0c1.5,0.2,2.8,0.2,2.9-0.1c0.2-0.3,0.7-1.1,1.4-1.9
			c-0.2,0-0.4-0.2-0.6-0.4c-0.3-0.3-0.6-0.6-1-0.7c-0.9-0.3-1.3-1-1.5-1.9c-0.1-0.9-0.1-1.7-0.2-2.6c-0.1-0.8-0.3-1.7-0.6-2.7
			c0.6-0.6,0.8-1.4,0.9-2.2c0.3-3.1,1.3-5.9,2.7-8.7c0.6-1.3,1.2-2.6,1.4-4c0.2-1.1,0.3-2.2,0.5-3.3c0.2-1.2,0.4-2.4,0.7-3.5
			c0.2-0.6,0.8-1,1.4-0.7c0.4,0.2,0.7,0.5,1.1,0.7c0.5,0.3,0.9,0.6,1.4,0.9c0.9,0.4,0.9,0.4,0.8,1.3c-0.4,2.2-0.4,4.4-0.1,6.6
			c0.2,1.7,0,3.3-0.8,4.8c-0.1,0.3-0.2,0.7-0.1,1c0.6,1.7,1.2,3.4,1.9,5c0.4,0.9,1.2,1.3,1.3,1.2c0.2-0.3,8.5-5.4,8.4-5.7
			c0,0,0,0,0-0.1c-0.4-1.3-2-1.9-3.1-1.1c0,0,0,0,0,0c-0.3,0.2-0.7,0.5-1,0.5c-1-0.1-2-0.4-2.9-1c0.2-0.2,0.2-0.3,0.3-0.4
			c1-0.5,1.2-1.3,1.3-2.3c0.1-0.7,0.2-1.5,0.2-2.2c0.1-2.6,0.2-5.2,0.3-7.9c0.1-2.4-1-4.2-3-5.4c-0.4-0.2-0.8-0.6-0.9-1
			c-0.5-1.4-1.5-2.3-2.5-3.3c-0.5-0.5-1-1-1.4-1.5c-0.8-1-0.8-1.3-0.1-2.1c0.8-1,1.6-1.9,2.4-2.9c0.3-0.3,0.6-0.6,0.9-0.9
			c0.2,0.4,0.4,0.7,0.6,1c0.3-1.2,0.6-2.3,0.9-3.4c0.4-1.2,0.8-2.3,1.8-3.1c0.2-0.1,0.3-0.3,0.4-0.5c0.4-0.8,1-1.2,1.8-1.6
			c0.7-0.4,1.4-0.8,2-1.3c0.4-0.3,0.6-0.8,0.9-1c0.4-0.2,0.9-0.2,1.4-0.3c-0.6-0.9,0-1.5,0.6-2c0.3-0.2,0.5-0.5,0.7-0.7
			c0.9-1,1.8-2,2.6-3c0.6-0.8,1.1-1.6,1.9-2.1c0.3-0.2,0.5-0.5,0.7-0.8c0.8-1.1,1.7-1.9,2.8-2.6c1-0.7,2-1.4,3-2.2
			c0.5-0.4,0.9-1,0.9-1.7c0.1-1,0.2-1.1,1.5-0.9c0,0.5,0.1,1,0,1.5c-0.1,0.6-0.1,1.2,0,1.8c0.1,1.1-0.2,2.1-0.8,3
			c-0.8,1.2-1.2,2.5-1.6,3.9c-0.3,1.4-0.6,2.7-0.9,4.1c-0.2,0.7-0.1,1.4,0.1,2.1c0.3,1.4,0.6,2.8,0.9,4.2c0.3,1.5,0.6,3.1,0.9,4.6
			c0.1,0.6,0.4,1.3,0.5,1.9c0,0.2,0,0.6-0.2,0.7c-0.7,0.4-0.7,0.9-0.5,1.5c0.2,0.6,0,1.1-0.4,1.5c-0.7,0.5-1.4,1.1-2.2,1.5
			c-0.8,0.4-1.4,0.8-1.1,1.8v0c0.2,0,7.1-2.1,7.1-2.1l10-2.8l2.4-0.8c-0.1-0.1-0.2-0.1-0.3-0.2C115.1,76.4,114.4,75.7,114,74.9z
			 M108.5,75.9c-0.5,0.5-0.9,1-1.2,1.7c-0.4,0.7-0.8,1.1-1.6,1.1c-0.5,0-0.9,0.1-1.4,0c-0.2,0-0.6-0.1-0.7-0.2
			c-0.5-0.6-1.1-1.2-1.1-2.1c-0.1-1.8-0.2-3.6-0.2-5.4c0-1,0-1.9-0.3-2.8c-0.1-0.4-0.2-0.9-0.4-1.3c-0.4-1.6,0.3-2.7,1.6-3.8
			c0.8,0.5,1.3,1.2,1.7,1.9c1.2,1.8,2.3,3.7,3.5,5.5c0.5,0.8,0.9,1.6,0.7,2.5c-0.1,0.3,0,0.6,0.1,0.8
			C109.4,74.7,109.1,75.3,108.5,75.9z"/>
	</g>
	<g>
		<path class="st0" d="M147.3,112.9c0,0-0.1,0-0.1,0c-0.4-0.1-1.6-0.1-3.6-0.2l-0.9,3.3c1.8,0,3.2-0.1,4-0.1c0.2,0,0.3,0.1,0.3,0.3
			c0,0.8-0.1,1.5-0.2,2c0,0.2-0.1,0.2-0.2,0.2c0,0,0,0-0.1,0c-0.4-0.1-1.8-0.1-4.3-0.2l-1,4.2c-0.1,0.4-0.2,1-0.5,1.9
			c-0.1,0.2-0.2,0.3-0.4,0.3c-0.1,0-0.1,0-0.2-0.1c-0.1,0-0.3-0.2-0.7-0.4c-0.2-0.1-0.4-0.1-0.7-0.2c-0.3-0.1-0.4-0.2-0.4-0.4
			c0,0,0.5-1.8,1.6-5.4h-1.1c-0.9,0-1.5,0-2,0c-0.3,1.3-0.8,3.3-1.5,6c-0.1,0.2-0.2,0.3-0.3,0.3c-0.1,0-0.1,0-0.2-0.1
			c-0.1,0-0.3-0.2-0.7-0.4c-0.2-0.1-0.5-0.2-0.9-0.4c-0.1-0.1-0.1-0.1-0.1-0.3c0,0,0.5-1.8,1.5-5.2c-0.3,0-0.9,0-1.7,0.1
			c-0.7,0-1.3,0.1-1.7,0.1c-0.2,0-0.3-0.1-0.3-0.3c0-0.1,0-0.3,0.1-0.6c0.1-0.3,0.1-0.5,0.1-0.6c0-0.2,0-0.5,0.1-0.9
			c0.1-0.2,0.2-0.3,0.4-0.3c0.5,0,1.1,0,1.9,0.1c0.9,0,1.6,0.1,1.9,0.1l0.8-3.3c-0.4,0-1.1,0-2,0.1c-0.9,0.1-1.5,0.1-2,0.1
			c-0.2,0-0.3-0.1-0.3-0.3c0-0.1,0-0.3,0.1-0.5c0.1-0.3,0.1-0.4,0.1-0.5c0-0.3,0-0.6,0.1-0.9c0.1-0.2,0.2-0.3,0.3-0.3
			c0.5,0,1.3,0,2.2,0.1c1.1,0,1.8,0.1,2.2,0.1c0.3-1,0.6-2.4,1.1-4.3c0.1-0.4,0.2-1,0.4-1.8c0.1-0.2,0.2-0.3,0.3-0.3
			c0.1,0,0.1,0,0.2,0c0.2,0.1,0.4,0.3,0.8,0.4c0.2,0.1,0.5,0.2,0.8,0.3c0.1,0,0.1,0.1,0.1,0.2c0,0.2-0.5,2-1.6,5.4h3.1
			c0.5-1.8,0.8-3.2,1.1-4.2c0.1-0.4,0.2-1,0.4-1.8c0.1-0.2,0.2-0.3,0.4-0.3c0.1,0,0.1,0,0.2,0.1c0.2,0.1,0.4,0.2,0.8,0.4
			c0.2,0.1,0.5,0.2,0.8,0.3c0.1,0.1,0.1,0.1,0.1,0.3c0,0-0.5,1.7-1.5,5.3c1.5,0,2.6-0.1,3.3-0.1c0.2,0,0.3,0.1,0.3,0.3
			c0,0.7-0.1,1.4-0.2,1.9C147.5,112.9,147.5,112.9,147.3,112.9z M141.3,112.7c-0.4,0-0.8,0-1.2,0l-1.9,0c-0.3,1.2-0.6,2.3-0.9,3.4
			h3.1C140.7,115.3,141,114.2,141.3,112.7z"/>
		<path class="st0" d="M180.2,111.4c0,0-0.8,1.8-2.5,5.4c-1.7,3.6-2.6,5.7-2.9,6.1c-0.1,0.2-0.1,0.2-0.1,0.3c0,0-0.1,0.1-0.3,0.1
			c-0.2,0.1-0.8,0.1-1.9,0.1c-1,0-1.6,0-1.8-0.1c-0.2,0-0.3-0.1-0.3-0.1c0,0-0.1-0.1-0.2-0.3c-0.1-0.1-0.3-0.7-0.8-1.9l-1.4-3.7
			l-1.5,3.7c-0.2,0.4-0.4,1-0.7,1.8c-0.1,0.2-0.2,0.2-0.2,0.3c0,0-0.1,0.1-0.3,0.1c-0.3,0.1-0.9,0.1-1.7,0.1c-1.1,0-1.7,0-1.9-0.1
			c-0.2,0-0.3-0.2-0.4-0.4c-3.5-7.2-5.2-11-5.2-11.5c0-0.7,0-1.8,0.1-3.2c0-1.4,0.1-2.5,0.1-3.2c0-0.3,0.1-0.4,0.3-0.4
			c0.5,0,1.3,0,2.3,0.1c1,0,1.8,0.1,2.3,0.1c0.2,0,0.3,0.1,0.3,0.3c0,0.7,0,1.8-0.1,3.2c-0.1,1.4-0.1,2.5-0.1,3.2
			c0,0.3,0.3,1.1,1,2.5c0.6,1.3,1,2.1,1.3,2.6c0.1,0.2,0.2,0.3,0.3,0.3c0.1,0,0.3-0.4,0.5-1.3c0.8-2.4,1.3-3.8,1.3-4.2
			c0-0.8,0-1.9,0-3.1c0-1.8,0-2.9,0-3.1c0-0.2,0-0.3,0-0.3c0,0,0.1-0.1,0.3-0.1c0.5-0.1,1.2-0.1,2.3-0.1c1.7,0,2.5,0.1,2.5,0.4
			c0,0.6,0,1.5-0.1,2.8c0,1.2-0.1,2.1-0.1,2.8v0.7c0,0.5,0.5,1.9,1.4,4.3c0.3,0.8,0.5,1.3,0.6,1.3c0,0,0.1-0.1,0.3-0.3
			c0.2-0.4,0.6-1.3,1.2-2.6c0.6-1.4,0.9-2.2,0.9-2.5c0-0.7,0-1.8-0.1-3.2c-0.1-1.4-0.1-2.5-0.1-3.2c0-0.2,0.1-0.2,0.3-0.2
			c0.5,0,1.3,0,2.4-0.1c1,0,1.8-0.1,2.4-0.1c0.2,0,0.3,0.2,0.3,0.5c0,0.7,0,1.8,0.1,3.2C180.2,109.6,180.2,110.7,180.2,111.4z"/>
		<path class="st0" d="M202.1,119.1c0,0.4-0.1,1.1-0.2,2.1c-0.2,1.1-0.3,1.8-0.4,2c-0.1,0.2-0.3,0.3-0.4,0.3c-0.1,0-0.2,0-0.4,0
			c-0.6-0.1-2.5-0.1-5.7-0.1c-0.7,0-1.7,0-3,0c-1.3,0-2.4,0-3,0c-0.3,0-0.4-0.1-0.4-0.4c0-1,0.1-2.5,0.2-4.5c0.1-2,0.2-3.5,0.2-4.5
			c0-1-0.1-2.9-0.2-5.7c0-0.7-0.1-1.8-0.1-3.2l0-0.2c0-0.2,0.1-0.3,0.3-0.3c0.7,0,1.6,0,3,0.1c1.3,0,2.3,0.1,3,0.1
			c0.6,0,1.6,0,2.9-0.1c1.3,0,2.3-0.1,2.9-0.1c0.5,0,0.7,0.2,0.8,0.5c0,0.2,0.1,0.8,0.2,1.9c0.1,1,0.1,1.7,0.1,1.9
			c0,0.2-0.1,0.3-0.3,0.3c-0.1,0-0.1,0-0.3,0c-2.4-0.2-4.5-0.3-6.3-0.3c-0.5,0-0.8,0.1-0.9,0.3c0,0.1-0.1,0.4-0.1,1
			c0,0.6,0.1,1,0.3,1.2c0.2,0.2,0.4,0.3,0.9,0.3c0.1,0,0.3,0,0.5,0c0.3,0,0.5,0,0.6,0c1.1,0,2.2,0,3.4-0.1c0.1,0,0.3,0,0.7-0.1
			c0.3,0,0.5-0.1,0.7-0.1c0.2,0,0.3,0.1,0.3,0.3c0-0.2-0.1,0.5-0.2,2c-0.1,0.7-0.1,1.4-0.1,2.1c0,0.2-0.1,0.3-0.4,0.3l-1.2-0.1
			c-0.5-0.1-1.7-0.1-3.5-0.1h-1.4c-0.4,0-0.6,0.1-0.6,0.3c0,0,0,0.3,0,0.8c0,0.7,0,1.1,0.1,1.3c0.2,0.3,0.7,0.5,1.7,0.6
			c0,0,0.6,0,1.9,0c0.5,0,1.2,0,2.1-0.1c0.9-0.1,1.6-0.1,2.1-0.1C202,118.6,202.1,118.8,202.1,119.1z"/>
		<path class="st0" d="M221.1,128.8c-0.7,0-1.8,0-3.2-0.1c-1.4,0-2.5-0.1-3.3-0.1c-0.6,0-1.6,0-2.8,0.1c-1.2,0-2.2,0.1-2.8,0.1
			c-0.2,0-0.3-0.1-0.3-0.4c0-0.3,0-0.9,0.1-1.6c0.1-0.7,0.1-1.2,0.1-1.6c0-0.2,0.1-0.2,0.3-0.2c0.7,0,1.7,0,3,0.1
			c1.3,0,2.3,0.1,3,0.1c0.7,0,1.7,0,3.1,0c1.4,0,2.4,0,3.1,0c0.2,0,0.3,0.1,0.3,0.3c0,0.4,0,0.9-0.1,1.6c-0.1,0.7-0.1,1.3-0.1,1.6
			C221.4,128.7,221.3,128.8,221.1,128.8z"/>
		<path class="st0" d="M244.6,120.2c0,0.1-0.1,0.3-0.3,0.6c-1.6,1.9-3.8,2.9-6.5,2.9c-2.8,0-5-0.9-6.7-2.8c-1.7-1.8-2.5-4.1-2.5-6.9
			c0-2.7,0.8-5,2.5-6.9c1.7-2,3.9-3,6.5-3c2.9,0,5.1,0.9,6.7,2.7c0.2,0.2,0.3,0.4,0.3,0.5c0,0.2-0.3,0.8-0.9,1.9
			c-0.6,1.1-1,1.7-1.2,1.8c-0.1,0.1-0.2,0.1-0.3,0.1c0,0-0.3-0.2-0.7-0.5c-0.5-0.4-0.9-0.8-1.4-1c-0.7-0.4-1.4-0.5-2.2-0.5
			c-1.3,0-2.3,0.5-3.1,1.5c-0.7,0.9-1.1,2-1.1,3.4c0,1.4,0.4,2.5,1.1,3.4c0.8,1,1.8,1.5,3.1,1.5c0.8,0,1.5-0.2,2.2-0.5
			c0.5-0.2,0.9-0.5,1.4-0.9c0.4-0.3,0.6-0.5,0.7-0.5c0.1,0,0.2,0,0.3,0.1c0.1,0.2,0.5,0.7,1.2,1.7
			C244.2,119.6,244.6,120.1,244.6,120.2z"/>
		<path class="st0" d="M269.8,122.9c0,0.2-0.1,0.3-0.3,0.3c-0.3,0.1-1.1,0.1-2.5,0.1c-1.3,0-2.1,0-2.4-0.1c-0.3-0.1-0.5-0.3-0.6-0.6
			c-0.3-1.3-0.5-2-0.7-2.1c-0.1-0.1-1.3-0.1-3.6-0.1c-1.5,0-2.3,0-2.4,0.1c-0.2,0.1-0.3,0.6-0.5,1.4c-0.2,0.7-0.4,1.1-0.6,1.2
			c-0.3,0.1-1.3,0.1-3,0.1c-1.4,0-2-0.1-2-0.4c0-0.2,1-3.1,3-8.5c2.2-5.9,3.3-9.1,3.5-9.7c0.1-0.3,0.2-0.5,0.4-0.5
			c0.2,0,0.6,0,1.1,0.1c0.5,0,0.9,0.1,1.1,0.1c0.2,0,0.6,0,1.1,0c0.5,0,0.8,0,1,0c0.2,0,0.3,0.1,0.5,0.4c0.4,0.9,1.7,4.1,3.8,9.6
			C268.8,119.8,269.8,122.7,269.8,122.9z M260.4,110.8c-0.2,0.4-0.5,1.2-0.9,2.5c-0.5,1.4-0.7,2.2-0.7,2.4c0,0.2,0.3,0.2,0.8,0.3
			c0.3,0,0.7,0,1.4,0c0.6,0,0.9-0.1,1-0.2c0,0,0-0.1,0-0.2c0-0.3-0.2-1.1-0.6-2.4C260.9,111.9,260.6,111.1,260.4,110.8z"/>
		<path class="st0" d="M295.3,104.9c0,1,0,2.5-0.1,4.6c-0.1,2-0.1,3.6-0.1,4.6v8.8c0,0.2-0.1,0.4-0.4,0.4c-0.2,0-0.5,0-1,0
			c-0.4,0-0.8,0-1,0c-0.2,0-0.6,0-1-0.1c-0.5,0-0.8-0.1-1-0.1c-0.2,0-0.3-0.1-0.6-0.4c-0.6-0.9-2.1-2.8-4.3-5.7
			c-0.6-0.8-1.5-2-2.8-3.7c0-0.1-0.1-0.1-0.2-0.2c-0.1,0.1-0.1,0.2-0.1,0.3c0,1,0,2.6,0.1,4.6c0.1,2.1,0.1,3.6,0.1,4.6
			c0,0.3-0.1,0.5-0.4,0.5h-4.6c-0.3,0-0.4-0.1-0.4-0.4c0-1,0-2.4,0.1-4.3c0.1-1.9,0.1-3.4,0.1-4.4c0-1,0-2.6-0.1-4.6
			c-0.1-2-0.1-3.6-0.1-4.6c0-0.2,0.2-0.3,0.5-0.3c0.5,0,1.1,0,1.9-0.1c0.2,0,0.5-0.1,1-0.2c0.4-0.1,0.8-0.1,1-0.1
			c0.1,0,0.3,0.2,0.5,0.5l5,6.8c0.4,0.6,1.1,1.5,2,2.7c0.2,0.3,0.4,0.4,0.6,0.4c0.1,0,0.2-0.3,0.2-1c0-0.9-0.1-2.3-0.2-4.2
			c-0.1-1.9-0.2-3.3-0.2-4.2c0-0.3,0.1-0.5,0.3-0.5c0.5,0,1.3,0,2.4-0.1c1.1,0,1.9-0.1,2.4-0.1C295.2,104.5,295.3,104.7,295.3,104.9
			z"/>
	</g>
	<path class="st0" d="M212.1,41.5c-1.4,1.3-2.4,2.7-3.2,4.1C209.7,44.1,210.8,42.7,212.1,41.5z"/>
	<path class="st0" d="M213.2,40.5c-0.1,0.3-0.5,0.7-1.1,1C212.4,41.2,212.8,40.8,213.2,40.5z"/>
	<path class="st0" d="M210,61.7c-0.9-1.3-1.6-2.8-2.1-4.3C208.4,58.9,209.1,60.3,210,61.7z"/>
	<path class="st0" d="M60.2,137.7c7.1-6.1,13.6-13,20.3-19.5c5.2-5.1,10.3-10.2,15.5-15.3c9.6-9.6,18.9-19.6,29.5-28
		c6-4.7,12.3-9.2,19.4-12.1c3-1.3,6.1-2.2,9.4-2.3c4.6-0.2,8.4,1.5,12.1,4.1c0.9,0.6-1-0.9-0.6-0.6c-1.3-1.1-2.7-2.1-4-3.2
		c-2.7-2.1-5.4-4.4-8.3-6.4c-3.1-2.1-6.5-4.2-10.2-4.4c-2.9-0.2-5.8,0.3-8.6,1.2c-6.4,2.1-12.3,5.8-17.7,9.7
		c-7,5-13.6,10.7-19.7,16.9c-15,15.3-30.3,30.5-45.8,45.3c-6.4,6.1-13.1,11.4-22.2,12.2c-9.6,0.8-18.4-3.1-26.6-7.7
		c0.6,0.3,1.4,1.2,1.9,1.6c1.6,1.2,3.2,2.5,4.7,3.7c2.2,1.7,4.3,3.8,6.8,5.2c7.1,3.9,14.5,7.4,22.7,7.8
		C47.1,146.1,54.1,143,60.2,137.7z"/>
	<path class="st0" d="M314,51.6c-1.6-1.2-3.2-2.5-4.7-3.7c-2.2-1.7-4.4-3.7-6.8-5.1c-5.2-3.1-11.8-4.5-17.3-1.2
		c-2.6,1.6-4.8,3.9-6.9,6.2c-0.9,1-1.8,1.9-2.6,2.9c-1.8,2-3.5,4.1-5.2,6.1c-1,1.2-2.1,2.4-3.1,3.6c-0.2-0.1-0.4-0.3-0.5-0.4
		c-0.6-0.6-1.3-1.2-2-1.8c-1.4-1.2-2.8-2.4-4.3-3.6c-2.6-2.1-10.3-8-10.5-8c-9.5-6.9-21-13.3-32.4-8.7c-1.6,0.6-3,1.5-4.4,2.6
		c-0.4,0.3-0.8,0.6-1.1,1c-1.3,1.2-2.4,2.6-3.2,4.1c-0.3,0.6-0.6,1.2-0.8,1.8c0,0,0,0,0,0c-0.8,1.9-1.1,3.8-1,5.8c0,0,0,0,0,0
		c0.1,1.5,0.4,2.9,0.8,4.3c0.5,1.5,1.2,3,2.1,4.3c0,0.1,0.1,0.1,0.1,0.2c2,2.9,4.6,5.4,7.4,7.7c-4.4,5-9.2,9.5-15.4,12.3
		c-5.6,2.6-11.7,2.6-17.6,1.5c-1.6-0.3-3.3-0.7-4.8-1.3c-0.1,0-0.3-0.1-0.4-0.1c-0.2-0.1-0.4-0.1-0.5-0.2c-0.2-0.1-0.5-0.2-0.7-0.3
		c0,0,0,0,0,0c-0.2-0.1-0.5-0.2-0.7-0.3c-0.2-0.1-0.3-0.1-0.5-0.2c-0.1,0-0.2-0.1-0.3-0.1c-1.3-0.6-2.5-1.2-3.7-2
		c-2.2-1.5-4.4-2.9-6.4-4.7c1.2,1.1,2.2,2.5,3.2,3.7c1.5,1.6,3.1,3.1,4.8,4.5c4.7,3.9,10.1,6.8,15.8,8.8c2.8,1,5.6,1.7,8.4,2.3
		c4,0.9,8,1.3,12,0.4c3.4-0.8,6.6-2.3,9.4-4.2c4.7-3.2,8.7-7.4,12.4-11.7c0.6,0.4,1.2,0.9,1.8,1.3c1.5,1,3,2,4.7,2.8
		c5.7,2.7,12.5,4.1,18.8,3.3c9.4-1.1,16.1-7.1,22.3-13.9c5.2-5.8,10-12.3,15.4-17.2c2.4-2.1,5-3.7,8.2-4.1c4.2-0.6,8.4,0.9,12,3
		C315.3,52.8,314.6,52.1,314,51.6z M231.6,53.9c-3.8,3.6-7.2,7.7-10.7,11.8c-0.1-0.7-0.3-1.5-0.3-2.2c-0.3-5.1,2.5-10,6.5-13
		c6.4-4.7,14-4.4,21.1-2c-0.6-0.1-1.3-0.2-1.9-0.3C240.5,47.9,235.7,50.1,231.6,53.9z M254,71.8c-5.3,3-11.1,3.7-17,3
		c-0.3,0-0.7-0.1-1.1-0.1c-0.1,0-0.2,0-0.3,0c1.8-2.1,3.6-4.2,5.4-6.2c4.3-4.7,8.9-9.2,15.6-9.7c3.4-0.3,6.7,0.4,9.9,1.6
		c0.2,0.1,0.5,0.2,0.7,0.3C263.3,64.9,259,69,254,71.8z"/>
	<path class="st0" d="M165.2,86.7c-2.8,0-5.6-0.2-7.9-0.5c-2.7-0.3-5.4-0.9-8-1.8c-3-1-5-3-5.7-5.6c-0.7-2.6,0.1-5.5,2.3-8.1
		c2.4-2.8,4.9-5.7,7.3-8.4c0.5-0.6,1.1-1.2,1.6-1.8c-0.2,6.8,2.1,9.5,9.3,11.6c4.7,1.4,8.8,2,12.7,2c3.4,0,6.6-0.5,9.9-1.5l1.7-0.5
		l-1.1-1.4c-1-1.3-2-2.6-2.9-3.9c-2-2.6-3.9-5.1-5.8-7.5c-2.2-2.7-4.4-5.4-6.5-8.1c-2.1-2.6-4.2-5.2-6.3-7.8c-0.9-1.2-1.1-2,0.3-3.6
		c2.7-2.9,5.3-5.9,8.1-9.1c0.8-0.9,1.5-1.8,2.3-2.7c3.5,7.3,8.8,12.6,14,17.8c0.7,0.7,1.3,1.3,2,2c1.8,1.8,3.4,4.4,4.7,7.6
		c1.6,3.8,0.9,7.5-1.8,10.7c-3.7,4.3-7.6,8.9-11.7,13.3C179.1,84.5,173.4,86.7,165.2,86.7z"/>
</g>
</svg>
