<svg id="Layer_1" data-name="Layer 1" xmlns="http://www.w3.org/2000/svg" xmlns:xlink="http://www.w3.org/1999/xlink" viewBox="0 0 1074 1080"><defs><style>.cls-1{fill:none;}.cls-2{clip-path:url(#clip-path);}.cls-3{fill:#0c2141;}.cls-4{fill:url(#linear-gradient);}</style><clipPath id="clip-path"><rect class="cls-1" x="-846" y="-8" width="1920" height="1096"/></clipPath><linearGradient id="linear-gradient" x1="-607.9" y1="744.15" x2="1308.39" y2="744.15" gradientUnits="userSpaceOnUse"><stop offset="0" stop-color="#8c5027"/><stop offset="0.53" stop-color="#c7914f"/><stop offset="0.96" stop-color="#985524"/></linearGradient></defs><title>22SB-KSA-DMCC-011 annual meeting - Game devloping- medical quiz - GSK - KSA</title><g class="cls-2"><path class="cls-3" d="M1099.9,351.06v732.28H278.08A4483.21,4483.21,0,0,1,1099.9,351.06Z"/><path class="cls-4" d="M1164.75,416c53.24-2.42,97.58,17.93,140.81,47.63,10.57,7.26-12.21-10.56-7.44-6.72-15.39-12.4-31-24.52-46.61-36.65-32-24.89-63.5-51.18-96.93-74.15-35.82-24.62-75.46-48.28-119.73-51.35-34.16-2.37-68,3.09-100.44,13.47-75,24-143.65,66.95-207.32,112.4-28.3,20.19-55.84,41.63-83,63.6-1.25-4.14-2.73-8.15-4-12.29a67.78,67.78,0,0,0-18-29.43c-2.8-2.7-5.31-5.59-8-8.48-4.57-5.12-5.22-10.53-2.05-16.86,11.74-23.19,23.47-46.39,34.84-69.76,4-8,6.89-16.49,10.43-24.69,1.77-4.1,4-7.92,5.59-11.92,0-.09,0-.09.09-.19a62.65,62.65,0,0,0,2.89-36,201.45,201.45,0,0,0-7.27-27.48c-12.48-34.56-55.33-94.27-75.07-109.35s-23.29-16-57.94-24.5a43.45,43.45,0,0,0-8.85-.66c-3.54,0-7.92,1-12.48,1.59a61.54,61.54,0,0,0-23.84,8.2c-11.18,6.61-16.21,6-25.62-3.36-6.71-6.52-12.95-13.5-19.09-20.58-7.55-8.57-17.05-13.7-27.76-16.86-9.78-3-18.44-1.21-26.08,5.77-12.49,11.37-18.07,25.8-18.45,42.29a16.84,16.84,0,0,0,2.33,9.32c9.78,15.18,20.59,29.34,38.47,35.86,4.19,1.49,8.48,2.7,12.67,4.38,11.18,4.47,22,7.26,30.74-7.36.93,4.28,1.58,6.33,1.68,8.38.83,9.31.93,18.53,2.32,27.76,2,13.22,5.13,26.26,7.27,39.49,1,6,2.33,10.15,9.5,12,9.59,2.43,12.2,11.93,6.24,20-3.35,4.57-7.45,8.57-11.18,12.95-6.05,7.26-13.6,9.13-22.91,8.47a57.58,57.58,0,0,0-20.31,1.87c-11.17,3-17.88,15.18-12.94,25.8,6.14,13,1.3,23.75-6.06,32.69-16.48,20.12-34.46,38.94-51.88,58.31-.47.47-1.49.47-3.26.93-4.94-11.64-14-20-24.5-27.1-13.13-8.85-27-10.81-41.82-5.4-2.7.93-5.87,1.67-7.73,3.54-8.57,8.94-19.75,12.38-30.93,16.2a44,44,0,0,0-14.53,8.48c-4.28,3.82-4,9.78.75,13,4.28,3.07,9.41,5.12,14.34,7.08,5.31,2.23,7.18,6.05,4.57,10.62a69.44,69.44,0,0,1-11.83,15.18c-2.14,1.86-7.08,2.33-10.06,1.4-11.46-3.45-22.64-5-34.75-2a20.68,20.68,0,0,1-7.63.18c-21.89,18.73-54.58,48.16-57.38,64.46C120.7,548.66,99,566.54,90.43,590.58c-5.59,15.83-6.52,46.29-6.43,65.29v.19a49.26,49.26,0,0,1,.37,16.48c-2,11.09-2.79,21.61.09,32.51a25.51,25.51,0,0,1,.66,7.08c-1.4,17.7,4,33.72,12.11,49.28,5.58,10.61,7.17,22.35,6.8,34.37A296.74,296.74,0,0,1,93.13,868c-8.67,30.93-17.89,61.76-25.8,93-3.92,15.28-5.41,31.11-7.83,46.76-.93,6.8.1,13.13,5.4,18,5.59,5.12,5,10.9,1.68,16.58,0,.07-.1.14-.15.21-34.91,33.65-69.37,67.82-104.54,101.16-74.5,70.62-153.09,132.83-259,141.85-111.93,9.52-215.18-36.4-310.74-89.24,7.29,4,16.64,13.66,22.55,18.34q27.51,21.75,55.3,43.16c25.51,19.73,50.74,44.28,79.07,59.94,82.56,45.66,169.77,86.38,265.72,90.22,96.19,3.84,178-33,250.16-94,83.36-70.48,159.38-150.65,237.45-226.88q90.72-88.56,180.89-177.69C595.73,798,703.54,681.57,828.4,583.71c69.62-54.56,144.18-106.4,226.22-140.5C1089.94,428.53,1126.37,417.72,1164.75,416ZM235,805.46a239.6,239.6,0,0,0-1.14,74.92c-37.66,37.14-76,73.51-114,110.36,5.29-29.41,15.38-57.37,28.57-84.31,7.46-15.09,13.6-30.55,16.59-47,2.23-12.76,3.54-25.71,5.86-38.56,2.33-13.69,4.85-27.48,8.48-40.89,2-7.54,9.78-11.08,16.86-7.92,4.75,2.14,8.75,5.68,13.23,8.48,5.49,3.45,10.8,7.36,16.67,10C236.29,794.94,236.94,794.66,235,805.46Zm299.55-505.4a102,102,0,0,0-.46,21.33,57,57,0,0,1-9.51,35c-9,13.88-14.43,29.16-18.16,45.08s-7.08,31.76-10.62,47.6c-1.86,8.1-.83,15.83,1.31,23.94,4,16.2,6.71,32.6,10,49,3.64,17.89,7,35.86,10.81,53.65,1.18,5.64,2.94,11.19,4.45,16.77-8.4,8.19-17,16.19-25.24,24.53C432.17,682.79,366.55,748,301,813.24c.32-8.89.74-17.81,1-26.69.74-27.85-11.27-48.43-35.49-62.22-4.38-2.42-8.85-6.7-10.71-11.17C249.52,697.23,238,686,226.23,674.5a155.26,155.26,0,0,1-16.11-18c-9.13-11.73-9.22-15.37-1.68-24.4,9.31-11.27,18.54-22.64,27.94-33.81,3.08-3.54,6.71-6.52,10.81-10.53,2.7,4.75,4.47,8,6.52,11.74,3.82-13.88,7-26.92,11.08-39.59,4.38-13.5,8.85-27.2,21.43-35.95a15.89,15.89,0,0,0,4.37-5.78c4.1-9.12,11.84-13.78,20.5-18.07,8.29-4.19,15.92-9.68,23.38-15.27,4.1-3.08,6.61-8.85,11-11.27,4.56-2.43,10.43-2.43,16.76-3.82-6.42-10.9,0-17.42,7.36-23.66a83.7,83.7,0,0,0,8.76-8.48c10.15-11.73,20.86-22.82,29.8-35.39,6.71-9.23,12.49-18.82,22.73-24.87,3.35-2.05,6.06-5.5,8.39-8.76,9-12.29,20.21-22.07,33-30.36,11.92-7.73,23.28-16.4,34.55-25.15a25.71,25.71,0,0,0,10.44-19.75c.65-12.2,2.33-13,17.13-10.71C534.63,288.13,535.47,294.19,534.54,300.06ZM557,559.17c-.28-7.13-.89-14.27-.89-21.41.09-11.08-.37-21.79-3.63-32.41-1.49-5-2.89-10.15-4.19-15.28-4.66-18.63,3.72-31.95,18.25-43.68,9.88,5.87,14.63,14.53,19.85,22.63,8.82,13.63,17.41,27.34,26,41.05Q584.22,534,557,559.17Z"/></g></svg>