<svg xmlns="http://www.w3.org/2000/svg" xmlns:xlink="http://www.w3.org/1999/xlink" viewBox="0 0 565.4 236.01"><defs><style>.cls-1{fill:#0c2141;}.cls-2{fill:none;stroke-miterlimit:10;stroke-width:9px;stroke:url(#linear-gradient);}</style><linearGradient id="linear-gradient" x1="321.99" y1="182.87" x2="564.99" y2="182.87" gradientUnits="userSpaceOnUse"><stop offset="0" stop-color="#8c5027"/><stop offset="0.53" stop-color="#c7914f"/><stop offset="0.96" stop-color="#985524"/></linearGradient></defs><title>quiz-logo</title><g id="Layer_2" data-name="Layer 2"><g id="Layer_1-2" data-name="Layer 1"><path class="cls-1" d="M102.74,1V91.76H80.64V37.35L60.35,91.76H42.52L22.1,37.22V91.76H0V1H26.11L51.57,63.84,76.77,1Z"/><path class="cls-1" d="M140.74,18.74V37.09h29.59V54.15H140.74v19.9h33.47V91.76H118.64V1h55.57V18.74Z"/><path class="cls-1" d="M247.61,6.72a40.57,40.57,0,0,1,16.61,16A46.92,46.92,0,0,1,270.1,46.4a47,47,0,0,1-5.88,23.65,40.43,40.43,0,0,1-16.67,16q-10.8,5.69-25,5.69h-34V1h34Q236.9,1,247.61,6.72Zm-7,59.06q7-6.84,7-19.38t-7-19.52q-7-7-19.52-7H210.65V72.63h10.47Q233.66,72.63,240.64,65.78Z"/><path class="cls-1" d="M304.61,1V91.76h-22.1V1Z"/><path class="cls-1" d="M322.7,22.29A41.56,41.56,0,0,1,338.92,5.88,47.07,47.07,0,0,1,362.5,0q16.15,0,27.66,8.53a41,41,0,0,1,15.38,23.26h-24.3a19.66,19.66,0,0,0-7.69-8.66,21.59,21.59,0,0,0-11.3-3q-10.22,0-16.55,7.11t-6.33,19q0,11.88,6.33,19t16.55,7.11a21.59,21.59,0,0,0,11.3-3,19.61,19.61,0,0,0,7.69-8.66h24.3q-3.89,14.73-15.38,23.2T362.5,92.4a47.07,47.07,0,0,1-23.58-5.88A41.71,41.71,0,0,1,322.7,70.18a48.38,48.38,0,0,1-5.82-23.91A48.78,48.78,0,0,1,322.7,22.29Z"/><path class="cls-1" d="M475.58,75.73H441.72l-5.42,16H413.16L446,1h25.59L504.4,91.76H481ZM469.9,58.67,458.65,25.46,447.54,58.67Z"/><path class="cls-1" d="M536.45,74.7H565.4V91.76h-51V1h22.09Z"/><path class="cls-1" d="M78,236,62.52,219.29A45.44,45.44,0,0,1,50,220.93a45.62,45.62,0,0,1-22.61-5.76A42.75,42.75,0,0,1,11,199.08a47.79,47.79,0,0,1,0-46.44,42.88,42.88,0,0,1,16.35-16A45.62,45.62,0,0,1,50,130.85a45.93,45.93,0,0,1,22.75,5.76,42.49,42.49,0,0,1,16.28,16,48.35,48.35,0,0,1,.69,45.17,42,42,0,0,1-14.5,15.77L96.35,236ZM23.68,193A27.67,27.67,0,0,0,34.39,204.4a30.36,30.36,0,0,0,15.58,4,30.37,30.37,0,0,0,15.59-4A27.58,27.58,0,0,0,76.26,193a39.87,39.87,0,0,0,0-34.27,27.3,27.3,0,0,0-10.7-11.28A30.83,30.83,0,0,0,50,143.52a30.82,30.82,0,0,0-15.58,3.92,27.39,27.39,0,0,0-10.71,11.28,40,40,0,0,0,0,34.27Z"/><path class="cls-1" d="M123.84,132v56.13q0,10,5.26,15.07t14.63,5.07q9.51,0,14.76-5.07t5.26-15.07V132h14.44v55.87q0,10.77-4.68,18.25A29.15,29.15,0,0,1,161,217.26a40.42,40.42,0,0,1-17.36,3.67,40,40,0,0,1-17.29-3.67A28.43,28.43,0,0,1,114,206.11q-4.56-7.47-4.56-18.25V132Z"/><path class="cls-1" d="M211.39,132v88.06H196.94V132Z"/><path class="cls-1" d="M244.33,207.5h40.93v12.55h-58V208.77L268,144.53H227.23V132h58v11.27Z"/><line class="cls-2" x1="321.99" y1="182.87" x2="564.99" y2="182.87"/></g></g></svg>