<svg xmlns="http://www.w3.org/2000/svg" xmlns:xlink="http://www.w3.org/1999/xlink" viewBox="0 0 556 106"><defs><style>.cls-1{fill:url(#linear-gradient);}.cls-2{fill:#fff;}</style><linearGradient id="linear-gradient" x1="278" y1="135.47" x2="278" y2="-79.14" gradientUnits="userSpaceOnUse"><stop offset="0" stop-color="#8c5027"/><stop offset="0.38" stop-color="#c7914f"/><stop offset="0.8" stop-color="#d3ad86"/><stop offset="0.95" stop-color="#9c5b2a"/><stop offset="0.96" stop-color="#985524"/></linearGradient></defs><title>start-btn</title><g id="Layer_2" data-name="Layer 2"><g id="Layer_1-2" data-name="Layer 1"><rect class="cls-1" width="556" height="106" rx="20.59" ry="20.59"/><path class="cls-2" d="M172.58,78.86a17.28,17.28,0,0,1-7.5-5.69,15.54,15.54,0,0,1-3-9.07h14a6.79,6.79,0,0,0,2.08,4.57,6.68,6.68,0,0,0,4.61,1.58,7.22,7.22,0,0,0,4.62-1.35,4.48,4.48,0,0,0,1.69-3.73,4.39,4.39,0,0,0-1.35-3.3,11,11,0,0,0-3.3-2.16,55.14,55.14,0,0,0-5.58-1.92,59.45,59.45,0,0,1-8.53-3.23,15.59,15.59,0,0,1-5.69-4.77,13.26,13.26,0,0,1-2.39-8.22q0-7.55,5.46-11.81T182,25.5q8.91,0,14.38,4.26a15.27,15.27,0,0,1,5.84,11.88H188A5.59,5.59,0,0,0,186,37.53,6.76,6.76,0,0,0,181.5,36a5.66,5.66,0,0,0-3.85,1.27A4.59,4.59,0,0,0,176.19,41,4.53,4.53,0,0,0,178.65,45a40.66,40.66,0,0,0,7.69,3.15,72.34,72.34,0,0,1,8.5,3.38,16.32,16.32,0,0,1,5.65,4.69,12.59,12.59,0,0,1,2.38,7.92,15.61,15.61,0,0,1-2.34,8.39,16.39,16.39,0,0,1-6.81,6,23.22,23.22,0,0,1-10.53,2.23A27.75,27.75,0,0,1,172.58,78.86Z"/><path class="cls-2" d="M248.09,26.26V36.8h-14.3V80.25H220.64V36.8H206.33V26.26Z"/><path class="cls-2" d="M286.61,70.71H266.47l-3.23,9.54H249.47l19.53-54h15.23l19.53,54H289.84Zm-3.38-10.15L276.54,40.8l-6.61,19.76Z"/><path class="cls-2" d="M335.52,80.25,324.29,59.87h-3.15V80.25H308v-54h22.07a24.26,24.26,0,0,1,10.88,2.24,15.33,15.33,0,0,1,6.73,6.11,17.12,17.12,0,0,1,2.23,8.65,16,16,0,0,1-3,9.61,16.37,16.37,0,0,1-9,6l12.46,21.38ZM321.14,50.56h8.15c2.41,0,4.22-.58,5.42-1.76a6.71,6.71,0,0,0,1.81-5A6.5,6.5,0,0,0,334.71,39a7.45,7.45,0,0,0-5.42-1.77h-8.15Z"/><path class="cls-2" d="M395.27,26.26V36.8H381V80.25H367.81V36.8h-14.3V26.26Z"/></g></g></svg>