<svg xmlns="http://www.w3.org/2000/svg" viewBox="0 0 370 87"><defs><style>.cls-1{fill:#0c2141;}.cls-2{fill:#fff;}</style></defs><title>submit-btn</title><g id="Layer_2" data-name="Layer 2"><g id="Layer_1-2" data-name="Layer 1"><rect class="cls-1" width="370" height="87" rx="21.24" ry="21.24"/><path class="cls-2" d="M133,52.15a6.69,6.69,0,0,1-2.82-2.23,5.66,5.66,0,0,1-1-3.36h3.9a3.57,3.57,0,0,0,1.14,2.37,4,4,0,0,0,2.83.93A4.43,4.43,0,0,0,140,49,3,3,0,0,0,141,46.59a2.6,2.6,0,0,0-.65-1.82,4.41,4.41,0,0,0-1.64-1.09,26.39,26.39,0,0,0-2.7-.83,24.37,24.37,0,0,1-3.54-1.17,5.87,5.87,0,0,1-2.32-1.84,5.31,5.31,0,0,1-1-3.33,5.91,5.91,0,0,1,1-3.35A6.14,6.14,0,0,1,132.87,31a9.65,9.65,0,0,1,4-.77,8.39,8.39,0,0,1,5.3,1.61,6,6,0,0,1,2.29,4.44h-4a2.92,2.92,0,0,0-1.16-2.08,4.22,4.22,0,0,0-2.78-.87,4,4,0,0,0-2.56.8,2.8,2.8,0,0,0-1,2.31,2.37,2.37,0,0,0,.62,1.68,4.53,4.53,0,0,0,1.59,1,25.47,25.47,0,0,0,2.62.83,26.12,26.12,0,0,1,3.6,1.22A5.87,5.87,0,0,1,143.74,43a5.38,5.38,0,0,1,1,3.37,6,6,0,0,1-.91,3.2A6.56,6.56,0,0,1,141.15,52a8.78,8.78,0,0,1-4.12.91A10,10,0,0,1,133,52.15Z"/><path class="cls-2" d="M165,35.08V52.71h-3.65V50.63a6,6,0,0,1-2.25,1.71,7.27,7.27,0,0,1-3,.62,8,8,0,0,1-3.73-.86,6.26,6.26,0,0,1-2.59-2.56,8.31,8.31,0,0,1-.95-4.1V35.08h3.62V44.9a5.1,5.1,0,0,0,1.18,3.63,4.23,4.23,0,0,0,3.23,1.26,4.27,4.27,0,0,0,3.25-1.26,5.06,5.06,0,0,0,1.2-3.63V35.08Z"/><path class="cls-2" d="M176,35.6a7.94,7.94,0,0,1,3.6-.81,8.11,8.11,0,0,1,4.23,1.12,7.81,7.81,0,0,1,3,3.18,9.93,9.93,0,0,1,1.09,4.72,10.08,10.08,0,0,1-1.09,4.75,8.09,8.09,0,0,1-3,3.27A7.88,7.88,0,0,1,179.59,53a8,8,0,0,1-3.63-.8,7,7,0,0,1-2.51-2.05v2.56H169.8V29h3.65V37.7A7,7,0,0,1,176,35.6Zm7.43,5.06a5.22,5.22,0,0,0-2-2,5.3,5.3,0,0,0-2.64-.68,5.2,5.2,0,0,0-4.59,2.75,6.38,6.38,0,0,0-.75,3.17,6.5,6.5,0,0,0,.75,3.18,5.19,5.19,0,0,0,7.23,2,5.38,5.38,0,0,0,2-2.1,6.58,6.58,0,0,0,.75-3.2A6.28,6.28,0,0,0,183.42,40.66Z"/><path class="cls-2" d="M216.57,35.65a6.26,6.26,0,0,1,2.59,2.56,8.31,8.31,0,0,1,.94,4.1v10.4h-3.61V42.85a5.1,5.1,0,0,0-1.19-3.63A4.21,4.21,0,0,0,212.07,38a4.29,4.29,0,0,0-3.25,1.26,5.06,5.06,0,0,0-1.2,3.63v9.86H204V42.85a5.1,5.1,0,0,0-1.19-3.63A4.21,4.21,0,0,0,199.59,38a4.29,4.29,0,0,0-3.25,1.26,5.06,5.06,0,0,0-1.2,3.63v9.86H191.5V35.08h3.64v2a6.08,6.08,0,0,1,2.28-1.69,7.07,7.07,0,0,1,2.94-.61,7.93,7.93,0,0,1,3.78.89,6.17,6.17,0,0,1,2.56,2.6,5.88,5.88,0,0,1,2.49-2.55,7.38,7.38,0,0,1,3.65-.94A8,8,0,0,1,216.57,35.65Z"/><path class="cls-2" d="M224.94,32.07a2.38,2.38,0,0,1,0-3.33,2.32,2.32,0,0,1,4,1.66,2.33,2.33,0,0,1-4,1.67Zm3.45,3V52.71h-3.65V35.08Z"/><path class="cls-2" d="M237.45,38.05v9.76a1.89,1.89,0,0,0,.46,1.43,2.36,2.36,0,0,0,1.59.43h2.24v3h-2.88a5.53,5.53,0,0,1-3.78-1.16,4.71,4.71,0,0,1-1.31-3.74V38.05h-2.08v-3h2.08V30.69h3.68v4.39h4.29v3Z"/></g></g></svg>