<?xml version="1.0" encoding="utf-8"?>
<!-- Generator: Adobe Illustrator 22.1.0, SVG Export Plug-In . SVG Version: 6.00 Build 0)  -->
<svg version="1.1" id="Layer_1" xmlns="http://www.w3.org/2000/svg" xmlns:xlink="http://www.w3.org/1999/xlink" x="0px" y="0px"
	 viewBox="0 0 1920 464.6" style="enable-background:new 0 0 1920 464.6;" xml:space="preserve">
<style type="text/css">
	.st0{fill:#0C2141;}
	.st1{fill:url(#SVGID_1_);}
	.st2{fill:#FFFFFF;}
</style>
<title>survey-head</title>
<g>
	<rect class="st0" width="1920" height="464.6"/>
	<g>
		<g id="SHAPE_11_">
			
				<linearGradient id="SVGID_1_" gradientUnits="userSpaceOnUse" x1="1771.0288" y1="176.0434" x2="1830.0728" y2="256.1941" gradientTransform="matrix(1 0 0 -1 0 322)">
				<stop  offset="0" style="stop-color:#F16622"/>
				<stop  offset="0.7729" style="stop-color:#F16622"/>
			</linearGradient>
			<path class="st1" d="M1805,146.5c-23.1,0-44.8-27.5-44.8-48.9c0-31.9,43-35.2,61.3-35.2c24.6,0,36.6,7.6,36.6,23.1
				c0,19.1-19.1,43.6-32.9,53.9C1818.5,144.2,1811.9,146.5,1805,146.5z"/>
		</g>
		<g id="RED_MESH_19_">
		</g>
		<g id="YELLOW_MESH_19_">
		</g>
		<g id="WHITE_MESH_19_">
		</g>
		<path id="GSK_TEXT_7_" class="st2" d="M1844.7,113.5c-1.5,0-3.5-0.5-6.7-3.8c-4.1-4.6-9-10.5-9-10.5l7.4-7
			c4.4-4.1,5.6-4.4,5.9-4.4h-6.8c-1.4,1.8-2.9,3.2-2.9,3.2l-7.9,7.4V75.1l-6.1,1.5c0.8,1.1,1.1,2.7,1.1,6.7v24.1
			c0,4.9-0.3,5.3-0.8,6.8h6.4c-0.5-1.1-0.8-2-0.8-6.8v-7c0,0,3.5,4.3,8,9.6c2.7,3.3,5,4.7,7.7,4.7c2.1,0,3.9-0.5,5.3-1.5
			C1845.3,113.4,1845,113.5,1844.7,113.5z M1809.2,99.4c-3.5-1.7-6.8-3.3-6.8-6.1c0-2.3,2.6-3.3,5.2-3.3c2.7,0,5.2,0.9,7.3,2.6v-3.9
			c-2.1-1.2-4.7-1.8-7.3-1.8c-4.7,0-9.9,2.3-9.9,7.7c0,4.4,3.9,6.4,7.6,8c3.3,1.5,6.4,2.9,6.4,5.8s-3,3.5-5.5,3.5
			c-2.3,0-5.8-0.9-8.7-2.6v3.9c2.7,1.1,5.5,1.7,8.5,1.7c4.9,0,10.6-2,10.6-7.9C1816.6,103.4,1812.8,101.2,1809.2,99.4z
			 M1792.8,112.3c-2.4-1.2-6.2-1.2-12.3-1.7c-2.9-0.2-3.3-1.1-3.3-2.1c0-0.6,0.3-1.5,1.1-2c0.5-0.5,1.1-0.8,1.8-0.9
			c0.8,0.2,1.4,0.2,2,0.2c6.8,0,10.6-4.1,10.6-9c0-2.1-0.8-4.3-2.1-5.8c1.5,0,4.3,0.2,5.2,0.3v-3.5c-1.5,0.5-3.5,0.5-5.2,0.5
			c-1.4,0-2.7-0.3-3.9-0.6c-1.5-0.5-3.2-0.8-4.7-0.8c-6.8,0-11.1,4.1-11.1,9.6c0,3.8,2.4,7,5.9,8.4c-2.6,1.2-3.9,2.9-3.9,5
			c0,2,1.4,3.9,4.1,4.7c-3.9,1.7-7.6,4.9-4.9,8.4c3.9,5.3,18.1,4.7,22.5-0.8C1798,117.8,1795.5,113.5,1792.8,112.3z M1775.7,95.8
			c0-3.5,2.1-5.9,5.8-5.9c4.1,0,6.4,3,6.4,7c0,3.5-2,6.1-5.6,6.1C1777.9,102.9,1775.7,99.7,1775.7,95.8z M1786,123.2
			c-8,0.9-14.3-4.4-6.8-8.5c1.7,0.2,3,0.3,5.8,0.5c5.3,0.2,7,1.4,7.4,2.9C1793,120.4,1791.1,122.6,1786,123.2z"/>
	</g>
	<g>
		<path class="st2" d="M1597.7,109.6c-0.8,0.3-12.1-15.8-13.2-17.2c-3.2-3.9-6.4-8-9.6-12c-0.5-0.6-3.6-5-4.1-4.9
			c-13.5,5-24.6,14.7-31.3,27.6c-0.2,0.3,4.3,5.8,3.8,5c3,4.1,6.2,8,9.4,12.1c3.2,3.9,6.4,8,9.6,12c0.5,0.6,4.1,4.7,4.1,4.9
			C1573.1,124.5,1584.2,114.6,1597.7,109.6z"/>
		<path class="st2" d="M1455.8,105.8c-0.6,0.3-14.1-14-15.3-15.2c-3.6-3.5-7.3-7.1-11.1-10.6c-0.5-0.5-4.3-4.6-4.7-4.3
			c-12.8,6.8-22.5,17.9-27.3,31.6c-0.2,0.3,5,5,4.4,4.6c3.6,3.6,7.3,7.1,10.9,10.8c3.6,3.5,7.3,7.1,11.1,10.6
			c0.5,0.5,4.7,4.1,4.7,4.3C1433.3,123.7,1443,112.5,1455.8,105.8z"/>
		<path class="st2" d="M1513.9,105.8c-0.6,0.3-14.1-14-15.3-15.2c-3.6-3.5-7.3-7.1-11.1-10.6c-0.5-0.5-4.3-4.6-4.7-4.3
			c-12.8,6.8-22.5,17.9-27.3,31.6c-0.2,0.3,5,5,4.4,4.6c3.6,3.6,7.3,7.1,10.9,10.8c3.6,3.5,7.3,7.1,11.1,10.6
			c0.5,0.5,4.7,4.1,4.7,4.3C1491.6,123.7,1501.2,112.5,1513.9,105.8z"/>
		<g>
			<path class="st2" d="M1071.5,333.4c1.2,1.2,2.3,2.4,4.3,2.6c0.8,0,1.8,1.1,2.3,1.8c1.1,2,2.4,3,4.6,3.6c0.3,0,0.5,0.3,0.9,0.6
				l0,0c3.3,0.5,6.2,0.6,6.5-0.2c0.3-0.8,1.7-2.4,3-4.3c-0.5-0.2-0.8-0.5-1.4-0.9c-0.8-0.6-1.4-1.4-2.3-1.5c-2.1-0.6-3-2.1-3.3-4.1
				s-0.3-3.9-0.6-5.8c-0.3-1.8-0.8-3.8-1.2-6.1c1.4-1.2,1.7-3,2-5c0.8-6.8,3-13.2,6.1-19.3c1.4-2.9,2.6-5.8,3.2-9
				c0.5-2.4,0.6-4.9,1.1-7.4c0.5-2.7,0.9-5.3,1.7-8c0.5-1.8,1.4-2.1,3.2-1.4c0.9,0.5,1.7,1.1,2.6,1.7c1.1,0.6,2.1,1.4,3.2,2
				c2,0.9,2.1,0.8,1.7,2.9c-0.9,4.9-0.9,9.7-0.2,14.7c0.6,3.8,0,7.3-1.7,10.6c-0.3,0.6-0.5,1.5-0.3,2.1c1.4,3.8,2.7,7.4,4.3,11.1
				c0.9,2,2.6,2.9,2.9,2.6c0.5-0.6,19.1-12,18.8-12.8v-0.2c-0.9-2.9-4.4-4.1-6.8-2.4l0,0c-0.6,0.5-1.5,1.1-2.3,1.1
				c-2.3-0.2-4.4-0.8-6.4-2.3c0.3-0.5,0.5-0.8,0.6-0.8c2.1-1.1,2.7-3,2.9-5.2c0.2-1.7,0.5-3.2,0.5-4.9c0.3-5.8,0.5-11.7,0.6-17.5
				c0.2-5.3-2.1-9.3-6.8-11.8c-0.8-0.5-1.7-1.2-2-2.1c-1.2-3-3.3-5.2-5.6-7.4c-1.1-1.1-2.1-2.3-3-3.5c-1.7-2.3-1.8-2.9-0.3-4.7
				c1.8-2.1,3.5-4.4,5.3-6.5c0.6-0.6,1.2-1.2,2.1-2c0.5,0.9,0.9,1.5,1.2,2.3c0.8-2.6,1.4-5.2,2.1-7.6c0.9-2.6,1.7-5.2,4.1-6.8
				c0.3-0.3,0.6-0.8,0.9-1.1c0.8-1.8,2.3-2.6,3.9-3.5c1.5-0.8,3-1.8,4.4-2.9c0.8-0.6,1.2-1.7,2.1-2.1c0.9-0.5,2-0.5,3.2-0.8
				c-1.2-2.1,0-3.3,1.4-4.6c0.6-0.5,1.2-1.1,1.7-1.7c2-2.3,3.9-4.4,5.8-6.8c1.2-1.8,2.4-3.6,4.4-4.7c0.6-0.5,1.2-1.1,1.7-1.7
				c1.7-2.4,3.8-4.3,6.4-5.8c2.3-1.5,4.4-3.2,6.5-4.9c1.2-0.9,2-2.1,2-3.8c0.2-2.3,0.5-2.4,3.3-2.1c0,0.8,0.2,1.7,0.2,2.6
				c0,1.5-0.3,3-0.2,4.4c0.3,2.6-0.3,5-1.8,7.1c-1.7,2.6-2.7,5.6-3.5,8.7c-0.8,3-1.4,6.1-2,9.1c-0.3,1.5-0.2,3,0.3,4.6
				c0.8,3,1.4,6.2,2,9.4c0.8,3.5,1.4,6.8,2.1,10.3c0.3,1.5,0.9,2.9,1.2,4.3c0.2,0.5,0,1.5-0.5,1.7c-1.5,0.9-1.5,2.1-1.1,3.5
				c0.5,1.4,0.2,2.6-1.1,3.3c-1.7,1.2-3.2,2.4-5,3.3c-1.7,0.9-3.2,1.7-2.6,3.9c-0.6,0.3,15.9-4.6,15.9-4.6l22.3-6.4l5.5-1.7
				c-0.3-0.2-0.5-0.3-0.6-0.5c1.8-2.1,0.2-3.8-0.8-5.5c-0.6-1.2-1.2-2.3-2-3.5c-0.2-0.3-0.3-0.8-0.6-1.1c-3.3-2.9-4.1-7-5.6-10.8
				c-0.9-2.1-1.4-4.3-2.1-6.4c-0.6-2.1-1.8-3.9-3.5-5.5c-0.5-0.5-0.9-1.1-1.4-1.5c-0.9-0.9-1.1-2-0.5-3.2c2.3-4.4,4.6-9,6.7-13.4
				c0.8-1.5,1.4-3.2,2-4.7c0.3-0.8,0.8-1.5,1.1-2.3c0.5-1.1,0.8-2.1,1.2-3.3c0.3,0.6,0.6,1.2,1.2,2c0.5-1.8,0.5-3.3,1.2-4.4
				c0.9-1.2,2.4-2,3.6-2.9c0.3,0.5,0.6,0.8,0.9,1.1c0.2-0.2,0.3-0.2,0.3-0.3c0.3-2.1,0.6-4.3,0.9-6.5c0.3-2.6-0.3-4.9-2.9-6.1
				c-1.4-0.6-1.7-1.7-1.4-3.2c0.6-2.1,0-3.9-1.5-5.5c-2.6-2.7-5.2-5.6-7.9-8.2c-1.5-1.4-3.6-2.1-5.5-2.9c-2.1-0.8-4.4-1.2-6.5-1.5
				c-1.2-0.2-2.4,0-3.6,0.5c-1.4,0.5-2.6,1.2-3.8,1.7c-2,0.6-3.8,1.2-5.8,1.5c-1.8,0.3-3.5,0.6-5,1.7c-2.1,1.4-3.2,1.2-5-0.6
				c-1.2-1.2-2.4-2.6-3.6-3.9c-1.4-1.7-3.2-2.6-5.3-3.2c-1.8-0.6-3.5-0.2-5,1.1c-2.4,2.1-3.5,4.9-3.5,8c0,0.6,0.2,1.2,0.5,1.8
				c1.8,2.9,3.9,5.6,7.3,6.8c0.8,0.3,1.7,0.5,2.4,0.9c2.1,0.9,4.3,1.4,5.9-1.4c0.2,0.8,0.3,1.2,0.3,1.7c0.2,1.8,0.2,3.5,0.5,5.3
				c0.5,2.6,0.9,5,1.4,7.6c0.2,1.2,0.5,2,1.8,2.3c1.8,0.5,2.3,2.3,1.2,3.8c-0.6,0.9-1.4,1.7-2.1,2.4c-1.2,1.4-2.6,1.8-4.4,1.7
				c-1.2-0.2-2.6,0-3.9,0.3c-2.1,0.6-3.5,2.9-2.4,5c1.2,2.6,0.3,4.6-1.2,6.2c-3.2,3.8-6.7,7.4-9.9,11.1c-0.2,0.2-0.3,0.2-0.6,0.2
				c-0.9-2.3-2.7-3.8-4.7-5.2c-2.6-1.7-5.2-2.1-8-1.1c-0.5,0.2-1.1,0.3-1.5,0.8c-1.7,1.7-3.8,2.4-5.9,3c-1.1,0.3-2,0.9-2.7,1.7
				c-0.9,0.9-0.9,1.8,0.2,2.6c0.8,0.6,1.8,0.9,2.7,1.4c1.1,0.5,1.4,1.2,0.9,2c-0.6,1.1-1.4,2.1-2.3,2.9c-0.5,0.3-1.4,0.5-2,0.3
				c-2.1-0.6-4.4-0.9-6.7-0.5c-1.1,0.3-2.4-0.2-3.6-0.6c-2.3-0.9-4.6-0.9-6.7,0.2c-1.2,0.5-2.3,1.1-3.5,1.4
				c-2.7,0.9-4.9,2.6-6.2,5.2c-1.7,2.9-3.2,5.9-4.7,8.8c-0.9,1.7-1.2,3.3-0.9,5.2c0.2,1.2-0.2,2.6-0.3,3.9c-0.2,0.8-0.3,1.5-0.5,2.3
				c-0.6,3.3,0.3,5.6,3.2,7.3c0.9,0.6,2.3,1.1,2.6,1.8c0.6,1.5,0.8,3.3,0.6,5c-0.3,2.1-0.6,4.1,0,6.2c0.2,0.3,0.2,0.8,0.2,1.2
				c-0.3,3.5,0.8,6.5,2.3,9.6c1.1,2,1.4,4.3,1.4,6.5c-0.2,4.7-0.8,9.3-2.1,13.8c-1.7,5.9-3.5,11.8-5,17.8c-0.8,2.9-1.1,5.9-1.5,9
				c-0.2,1.2,0,2.6,1.1,3.5c1.1,0.9,0.9,2.1,0.3,3.2c-0.6,0.9-1.2,1.8-1.8,2.7c-1.2,1.8-2.6,3.6-3.8,5.6
				C1069.7,331.1,1069.8,331.7,1071.5,333.4z M1176.1,211.3c2.6,4.1,5.2,8.2,7.7,12.1c1.1,1.7,2,3.5,1.5,5.6c-0.2,0.6,0,1.2,0.2,1.8
				c0.5,1.8-0.2,3.2-1.4,4.4c-1.1,1.1-2.1,2.3-2.7,3.6c-0.8,1.7-1.8,2.4-3.6,2.4c-1.1,0-2,0.2-3,0c-0.5,0-1.2-0.2-1.5-0.5
				c-1.1-1.4-2.4-2.6-2.6-4.6c-0.2-4.1-0.5-8-0.5-12.1c0-2.1,0-4.3-0.8-6.2c-0.3-0.9-0.6-2-0.8-2.9c-0.9-3.6,0.8-6.1,3.5-8.4
				C1174.3,208.1,1175.2,209.8,1176.1,211.3z"/>
		</g>
		<g>
			<path class="st2" d="M1271,317.9c0,0-0.2,0-0.3,0c-0.8-0.2-3.5-0.3-8-0.5l-2,7.3c4.1-0.2,7.1-0.2,8.8-0.2c0.5,0,0.6,0.3,0.6,0.6
				c0,1.8-0.2,3.2-0.6,4.6c-0.2,0.3-0.3,0.6-0.6,0.6c0,0,0,0-0.3,0c-0.8-0.2-3.9-0.3-9.6-0.5l-2.3,9.4c-0.2,0.9-0.6,2.3-1.1,4.1
				c-0.2,0.5-0.5,0.8-0.8,0.8c-0.2,0-0.3,0-0.5-0.2s-0.8-0.3-1.5-0.8c-0.5-0.2-0.9-0.3-1.5-0.5c-0.6-0.3-0.9-0.6-0.9-0.9
				c0,0,1.2-3.9,3.5-12h-2.4c-2,0-3.5,0-4.4,0c-0.8,3-1.8,7.4-3.3,13.2c-0.2,0.5-0.5,0.6-0.8,0.6c-0.2,0-0.3,0-0.5-0.2
				c-0.2-0.2-0.8-0.3-1.5-0.9c-0.5-0.2-1.2-0.5-2.1-0.8c-0.2-0.2-0.3-0.3-0.3-0.6c0-0.2,1.1-3.9,3.3-11.5c-0.8,0-2,0.2-3.8,0.2
				c-1.7,0.2-2.9,0.2-3.8,0.2c-0.5,0-0.6-0.3-0.6-0.8c0-0.3,0-0.8,0.2-1.2c0.2-0.6,0.2-1.1,0.3-1.2c0-0.5,0-1.2,0.2-2
				c0.2-0.3,0.5-0.6,0.8-0.6c1.1,0,2.4,0,4.3,0.2c2.1,0.2,3.5,0.2,4.3,0.2l1.8-7.3c-0.9,0-2.4,0-4.6,0.2c-2,0.2-3.5,0.2-4.6,0.2
				c-0.5,0-0.6-0.3-0.6-0.8c0-0.3,0-0.6,0.2-1.1c0.2-0.6,0.2-0.9,0.3-1.2c0-0.6,0-1.2,0.2-2c0.2-0.3,0.3-0.6,0.8-0.6
				c1.2,0,2.9,0,4.9,0.2c2.4,0.2,4.1,0.2,4.9,0.2c0.6-2.1,1.4-5.3,2.6-9.6c0.2-0.9,0.5-2.3,0.9-4.1c0.2-0.5,0.3-0.6,0.8-0.6
				c0.2,0,0.3,0,0.5,0.2c0.3,0.3,0.9,0.6,1.8,0.9c0.5,0.2,1.1,0.3,2,0.6c0.2,0.2,0.3,0.3,0.3,0.6c0,0.5-1.2,4.4-3.5,12h6.8
				c1.1-3.9,1.8-7.1,2.4-9.4c0.2-0.9,0.5-2.3,0.9-3.9c0.2-0.5,0.5-0.8,0.8-0.8c0.2,0,0.3,0,0.5,0.2c0.5,0.2,1.1,0.6,1.8,0.9
				c0.5,0.2,1.1,0.5,1.8,0.6c0.2,0.2,0.3,0.3,0.3,0.6c0,0-1.2,3.9-3.5,11.7c3.3-0.2,5.8-0.2,7.3-0.2c0.5,0,0.6,0.2,0.6,0.6
				c0,1.7-0.2,3-0.6,4.4C1271.5,317.7,1271.3,317.9,1271,317.9z M1257.6,317.4c-0.9,0-1.7,0-2.6,0h-4.3c-0.8,2.6-1.4,5-2,7.4h7
				C1256.3,323.2,1256.9,320.8,1257.6,317.4z"/>
			<path class="st2" d="M1344.5,314.4c0,0-1.8,4.1-5.5,12c-3.8,8-5.9,12.6-6.4,13.7c-0.2,0.3-0.3,0.6-0.3,0.6
				c-0.2,0.2-0.3,0.2-0.6,0.3c-0.5,0.2-2,0.2-4.3,0.2c-2.1,0-3.5,0-3.9-0.2c-0.5-0.2-0.6-0.2-0.8-0.3c-0.2,0-0.2-0.3-0.5-0.6
				c-0.2-0.2-0.6-1.7-1.7-4.3l-3.2-8.2l-3.3,8.4c-0.3,0.9-0.9,2.3-1.7,4.1c-0.2,0.3-0.3,0.6-0.5,0.6c-0.2,0-0.3,0.2-0.6,0.2
				c-0.6,0.2-2,0.2-3.9,0.2c-2.4,0-3.8,0-4.3-0.2c-0.3-0.2-0.6-0.3-0.8-0.9c-7.7-15.9-11.7-24.4-11.7-25.7c0-1.5,0-3.9,0.2-7.1
				c0.2-3.2,0.2-5.5,0.2-7.1c0-0.6,0.2-0.9,0.6-0.9c1.1,0,2.9,0,5.2,0.2c2.3,0.2,3.9,0.2,5.2,0.2c0.5,0,0.6,0.2,0.6,0.6
				c0,1.5,0,3.9-0.2,7.1c-0.2,3.2-0.2,5.6-0.2,7.1c0,0.6,0.8,2.4,2.1,5.6c1.4,2.9,2.3,4.7,2.9,5.8c0.3,0.5,0.5,0.8,0.6,0.8
				c0.2,0,0.6-0.9,1.2-2.9c1.8-5.3,2.9-8.5,2.9-9.4c0.2-1.8,0.2-4.1,0-7c0-4.1-0.2-6.4-0.2-7c0-0.3,0-0.6,0.2-0.6
				c0,0,0.3-0.2,0.6-0.2c1.1-0.2,2.7-0.2,5.2-0.2c3.8,0,5.6,0.3,5.6,0.8c0,1.4,0,3.3-0.2,6.2c-0.2,2.7-0.2,4.7-0.2,6.2v1.5
				c0,1.1,1.1,4.3,3,9.7c0.8,1.8,1.1,2.9,1.2,2.9s0.3-0.3,0.6-0.8c0.6-0.9,1.5-2.9,2.7-5.8c1.4-3.2,2-5,2-5.6c0-1.7,0-3.9-0.2-7.1
				c-0.2-3.2-0.2-5.6-0.2-7.1c0-0.3,0.2-0.6,0.6-0.6c1.2,0,2.9,0,5.3-0.2s4.1-0.2,5.3-0.2c0.3,0,0.6,0.5,0.6,1.2c0,1.5,0,3.9,0.2,7
				C1344.5,310.6,1344.5,312.9,1344.5,314.4z"/>
			<path class="st2" d="M1393.4,331.5c0,0.9-0.2,2.4-0.5,4.7c-0.3,2.4-0.6,3.9-0.9,4.4c-0.3,0.3-0.6,0.6-0.9,0.6
				c-0.2,0-0.5,0-0.9-0.2c-1.5-0.2-5.6-0.3-12.6-0.3c-1.5,0-3.8,0-6.8,0s-5.3,0-6.8,0c-0.6,0-0.9-0.3-0.9-0.9c0-2.3,0.2-5.6,0.3-10
				c0.3-4.4,0.3-7.7,0.3-10s-0.2-6.5-0.3-12.6c0-1.5-0.2-3.9-0.3-7.1v-0.5c0-0.5,0.2-0.6,0.8-0.6c1.5,0,3.6,0,6.5,0.2
				c2.9,0.2,5.2,0.2,6.5,0.2c1.5,0,3.6,0,6.5-0.2c2.9-0.2,5-0.2,6.5-0.2c1.1,0,1.7,0.5,1.8,1.2c0.2,0.5,0.3,1.8,0.5,4.1
				c0.2,2.3,0.3,3.6,0.3,4.3c0,0.5-0.2,0.6-0.6,0.6c-0.2,0-0.3,0-0.6,0c-5.3-0.5-10-0.6-14.1-0.6c-1.1,0-1.7,0.3-2,0.8
				c-0.2,0.3-0.2,1.1-0.2,2.3c0,1.4,0.2,2.3,0.6,2.7c0.3,0.3,0.9,0.6,2,0.6c0.2,0,0.6,0,1.2,0s1.1,0,1.4,0c2.4,0,5,0,7.6-0.2
				c0.2,0,0.8,0,1.7-0.2c0.6-0.2,1.2-0.2,1.7-0.2c0.5,0,0.8,0.3,0.8,0.6c0-0.5-0.2,1.1-0.6,4.6c-0.2,1.5-0.3,3.2-0.3,4.7
				c0,0.5-0.3,0.6-0.9,0.6l-2.7-0.3c-1.1-0.2-3.6-0.2-7.7-0.2h-3.2c-0.8,0-1.2,0.2-1.4,0.6c0,0.2,0,0.8,0,1.8c0,1.5,0.2,2.4,0.3,2.9
				c0.3,0.8,1.7,1.2,3.8,1.4c0,0,1.4,0,4.4,0c1.1,0,2.6-0.2,4.7-0.3c2.1-0.2,3.6-0.3,4.7-0.3
				C1393.2,330.5,1393.4,330.9,1393.4,331.5z"/>
			<path class="st2" d="M1435.9,353.1c-1.7,0-3.9,0-7.3-0.2c-3.2-0.2-5.6-0.2-7.3-0.2c-1.4,0-3.5,0-6.2,0.2
				c-2.7,0.2-4.9,0.2-6.2,0.2c-0.5,0-0.6-0.3-0.6-0.9c0-0.8,0-2,0.2-3.5c0.2-1.5,0.2-2.7,0.2-3.5c0-0.3,0.2-0.6,0.6-0.6
				c1.5,0,3.6,0,6.7,0.2s5.2,0.2,6.7,0.2s3.8,0,7-0.2c3,0,5.5-0.2,7-0.2c0.3,0,0.6,0.2,0.6,0.6c0,0.8,0,2-0.2,3.6
				c-0.2,1.7-0.2,2.9-0.2,3.6C1436.6,352.9,1436.5,353.1,1435.9,353.1z"/>
			<path class="st2" d="M1488.4,334.1c0,0.3-0.2,0.8-0.6,1.2c-3.6,4.4-8.5,6.5-14.6,6.5c-6.2,0-11.2-2.1-15-6.4
				c-3.8-4.1-5.6-9.3-5.6-15.5c0-6.1,1.8-11.1,5.5-15.3c3.8-4.4,8.7-6.5,14.6-6.5c6.4,0,11.4,2,15,5.9c0.5,0.5,0.6,0.8,0.6,1.2
				c0,0.3-0.8,1.8-2.1,4.3c-1.4,2.4-2.3,3.8-2.6,4.1c-0.2,0.2-0.3,0.3-0.6,0.3c-0.2,0-0.6-0.5-1.5-1.2c-1.1-0.9-2.1-1.7-3.2-2.3
				c-1.5-0.8-3.2-1.2-4.9-1.2c-2.9,0-5.2,1.1-7,3.3c-1.7,2-2.4,4.6-2.4,7.4c0,3,0.8,5.5,2.4,7.6c1.7,2.3,4.1,3.3,7,3.3
				c1.7,0,3.3-0.3,4.9-1.1c1.1-0.5,2-1.2,3-2.1c0.9-0.8,1.4-1.1,1.5-1.1c0.2,0,0.5,0.2,0.6,0.3c0.3,0.3,1.2,1.5,2.6,3.6
				C1487.6,332.8,1488.4,334,1488.4,334.1z"/>
			<path class="st2" d="M1544.9,340c0,0.3-0.3,0.6-0.8,0.8c-0.6,0.2-2.4,0.3-5.5,0.3c-2.9,0-4.7-0.2-5.5-0.3
				c-0.6-0.2-1.1-0.6-1.2-1.4c-0.6-2.9-1.2-4.4-1.5-4.6c-0.3-0.2-3-0.2-7.9-0.2c-3.3,0-5.2,0.2-5.3,0.3c-0.3,0.3-0.8,1.4-1.1,3.2
				c-0.3,1.7-0.8,2.6-1.4,2.7c-0.6,0.2-2.9,0.3-6.8,0.3c-3,0-4.6-0.3-4.6-0.9c0-0.5,2.3-6.8,6.7-19c4.9-13.1,7.4-20.3,7.9-21.7
				c0.3-0.8,0.5-1.1,0.8-1.1c0.6,0,1.4,0,2.4,0.2c1.1,0.2,2,0.2,2.6,0.2c0.6,0,1.4,0,2.4-0.2s1.8-0.2,2.3-0.2c0.3,0,0.8,0.3,1.1,0.9
				c0.9,2.1,3.8,9.3,8.5,21.4C1542.5,333.2,1544.9,339.6,1544.9,340z M1523.8,313c-0.5,0.9-1.1,2.7-2.1,5.6c-1.1,3-1.7,4.9-1.7,5.5
				c0,0.3,0.6,0.6,1.8,0.6c0.6,0,1.7,0,3,0c1.4,0,2-0.2,2.1-0.5c0-0.2,0-0.3,0-0.5c0-0.6-0.5-2.4-1.4-5.5
				C1524.8,315.6,1524.2,313.8,1523.8,313z"/>
			<path class="st2" d="M1601.8,300.1c0,2.3-0.2,5.6-0.3,10.2c-0.2,4.6-0.3,7.9-0.3,10.2V340c0,0.6-0.3,0.8-0.9,0.8
				c-0.5,0-1.2,0-2.1,0s-1.7,0-2.1,0c-0.5,0-1.2,0-2.3-0.2s-1.8-0.2-2.3-0.2c-0.3,0-0.8-0.3-1.2-0.9c-1.4-2-4.6-6.2-9.6-12.8
				c-1.4-1.8-3.5-4.6-6.2-8.2c-0.2-0.2-0.3-0.3-0.5-0.3c-0.2,0.2-0.3,0.3-0.3,0.6c0,2.3,0,5.8,0.2,10.3c0.2,4.6,0.2,8,0.2,10.3
				c0,0.8-0.3,1.1-0.8,1.1H1563c-0.6,0-0.9-0.3-0.9-0.9c0-2.1,0.2-5.3,0.3-9.7c0.2-4.4,0.3-7.6,0.3-9.7c0-2.3-0.2-5.6-0.3-10.2
				c-0.2-4.6-0.3-7.9-0.3-10.2c0-0.5,0.5-0.6,1.2-0.6c1.2,0,2.6-0.2,4.3-0.3c0.5,0,1.2-0.2,2.3-0.5c1.1-0.2,1.8-0.3,2.3-0.3
				c0.3,0,0.6,0.3,1.1,1.1l11.1,15.2c1.1,1.4,2.4,3.3,4.6,5.9c0.5,0.6,0.9,0.9,1.2,0.9c0.3,0,0.5-0.8,0.5-2.3c0-2.1-0.2-5.2-0.3-9.4
				c-0.2-4.1-0.3-7.3-0.3-9.4c0-0.8,0.2-1.1,0.6-1.1c1.2,0,3,0,5.3-0.2c2.4-0.2,4.3-0.2,5.3-0.2
				C1601.5,299.2,1601.8,299.5,1601.8,300.1z"/>
		</g>
		<path class="st2" d="M1415.7,158.9c-3,3-5.5,6.1-7.1,9.3C1410.4,164.8,1413,161.7,1415.7,158.9z"/>
		<path class="st2" d="M1418.3,156.8c-0.3,0.8-1.1,1.5-2.6,2.1C1416.6,158.2,1417.4,157.6,1418.3,156.8z"/>
		<path class="st2" d="M1411.1,204c-2-3-3.6-6.2-4.7-9.6C1407.6,197.6,1409.2,200.8,1411.1,204z"/>
		<path class="st2" d="M1076.4,373c15.9-13.5,30.5-28.8,45.4-43.4c11.5-11.2,23.1-22.6,34.6-34c21.6-21.3,42.2-43.6,66-62.2
			c13.4-10.5,27.6-20.3,43.3-26.9c6.8-2.9,13.7-4.9,21.1-5.2c10.2-0.5,18.7,3.5,27,9.1c2,1.4-2.3-2-1.4-1.2c-2.9-2.4-5.9-4.7-9-7
			c-6.1-4.7-12.1-9.9-18.5-14.1c-6.8-4.7-14.4-9.3-22.9-9.9c-6.5-0.5-13.1,0.6-19.3,2.6c-14.4,4.6-27.5,12.8-39.6,21.6
			c-15.6,11.2-30.5,23.8-44,37.7c-33.6,34.2-67.7,67.9-102.5,100.8c-14.3,13.5-29.3,25.4-49.6,27.2c-21.4,1.8-41.1-7-59.5-17
			c1.4,0.8,3.2,2.6,4.3,3.5c3.5,2.7,7,5.5,10.6,8.2c4.9,3.8,9.7,8.5,15.2,11.5c15.8,8.8,32.5,16.5,50.9,17.3
			C1046.9,391.7,1062.6,384.7,1076.4,373z"/>
		<path class="st2" d="M1643.6,181.5c-3.5-2.7-7.1-5.5-10.6-8.2c-5-3.8-9.9-8.2-15.2-11.4c-11.7-7-26.4-10.2-38.6-2.6
			c-5.9,3.6-10.8,8.8-15.5,13.7c-2,2.1-3.9,4.3-5.9,6.5c-3.9,4.4-7.9,9.1-11.7,13.5c-2.3,2.7-4.6,5.3-7,8c-0.5-0.3-0.9-0.6-1.2-0.9
			c-1.4-1.4-2.9-2.7-4.4-4.1c-3.2-2.7-6.4-5.3-9.7-7.9c-5.8-4.7-23.1-17.9-23.5-17.9c-21.4-15.5-46.9-29.6-72.4-19.3
			c-3.5,1.4-6.8,3.3-9.7,5.6c-0.9,0.8-1.7,1.4-2.6,2.1c-2.9,2.7-5.3,5.8-7.1,9.3c-0.8,1.2-1.4,2.6-1.8,3.9l0,0
			c-1.7,4.3-2.4,8.5-2.1,12.8c0,0,0,0,0.2,0c0.2,3.3,0.8,6.5,1.8,9.6c1.2,3.3,2.7,6.5,4.7,9.6c0.2,0.2,0.2,0.3,0.3,0.5
			c4.4,6.5,10.3,12,16.5,17c-9.9,11.1-20.6,21.1-34.3,27.3c-12.4,5.6-26.1,5.8-39.3,3.3c-3.6-0.6-7.3-1.7-10.8-2.9
			c-0.3-0.2-0.6-0.2-0.9-0.3c-0.5-0.2-0.8-0.3-1.2-0.5c-0.5-0.2-1.1-0.5-1.5-0.6l0,0c-0.5-0.2-1.1-0.5-1.5-0.6
			c-0.3-0.2-0.8-0.3-1.1-0.5c-0.2-0.2-0.5-0.2-0.6-0.3c-2.9-1.4-5.6-2.7-8.4-4.4c-4.9-3.3-9.9-6.5-14.3-10.3
			c2.7,2.3,4.9,5.5,7.3,8.2c3.3,3.5,6.8,7,10.6,10c10.5,8.7,22.6,15.2,35.4,19.6c6.2,2.1,12.4,3.6,18.8,5.2c9,2,17.9,2.9,26.9,0.8
			c7.6-1.7,14.6-5,21.1-9.4c10.6-7,19.4-16.4,27.8-26c1.4,0.9,2.7,2,4.1,2.9c3.3,2.3,6.8,4.4,10.5,6.1c12.8,6.1,28.1,9.1,42.1,7.3
			c21-2.6,36.1-15.6,49.8-31c11.7-12.9,22.3-27.5,34.5-38.1c5.3-4.7,11.2-8.2,18.4-9.1c9.4-1.2,18.8,2,26.9,6.8
			C1646.5,184.1,1644.8,182.5,1643.6,181.5z M1459.3,186.6c-8.5,8-16.1,17.3-23.8,26.3c-0.3-1.7-0.6-3.2-0.6-4.9
			c-0.6-11.2,5.5-22.3,14.4-28.8c14.3-10.5,31.3-9.7,47.1-4.4c-1.4-0.3-2.9-0.5-4.3-0.6C1479.3,173,1468.5,178.1,1459.3,186.6z
			 M1509.4,226.5c-11.8,6.5-24.7,8.2-38.1,6.7c-0.8-0.2-1.5-0.2-2.3-0.3c-0.2,0-0.5,0-0.6-0.2c4.1-4.7,8-9.4,12.1-13.8
			c9.7-10.5,19.9-20.5,34.8-21.6c7.4-0.6,15,0.9,22,3.6c0.5,0.2,1.1,0.5,1.5,0.6C1530.2,211.1,1520.7,220.1,1509.4,226.5z"/>
		<path class="st2" d="M1310.9,259.6c-6.2,0-12.4-0.6-17.8-1.1c-5.9-0.6-12.1-2-17.9-3.9c-6.7-2.3-11.2-6.8-12.8-12.4
			c-1.5-5.8,0.3-12.3,5-17.9c5.3-6.4,10.9-12.6,16.2-18.8c1.2-1.4,2.4-2.7,3.6-4.1c-0.6,15.2,4.6,21.1,20.8,25.8
			c10.5,3,19.7,4.6,28.4,4.6c7.4,0,14.7-1.1,22.2-3.3l3.8-1.1l-2.4-3.2c-2.3-3-4.4-5.8-6.5-8.7c-4.4-5.8-8.7-11.4-12.9-16.7
			c-4.9-6.1-9.7-12-14.6-17.9c-4.7-5.8-9.6-11.5-14.1-17.5c-2.1-2.6-2.6-4.6,0.8-7.9c6.1-6.4,12-13.1,18.1-20.2
			c1.7-2,3.5-3.9,5.2-5.9c7.7,16.2,19.7,28.1,31.3,39.5c1.5,1.5,2.9,2.9,4.4,4.4c3.9,3.9,7.6,9.9,10.5,17c3.5,8.5,2.1,16.7-3.9,23.8
			c-8.2,9.6-17.2,19.9-26.1,29.6C1341.9,254.6,1329.3,259.6,1310.9,259.6z"/>
	</g>
	<g>
		<g>
			<path class="st2" d="M136.8,353.4h-24.3l-4.2,11.8h-9.9l20.9-58.4h11l20.9,58.4H141L136.8,353.4z M134,345.6l-9.5-27.1l-9.5,27.1
				H134z"/>
			<path class="st2" d="M202.1,319.1v46.3h-9.5v-5.5c-1.5,1.9-3.4,3.4-5.9,4.4c-2.5,1.1-5.1,1.7-7.8,1.7c-3.6,0-7-0.8-9.7-2.3
				c-3-1.5-5.1-3.8-6.8-6.8c-1.7-3-2.5-6.6-2.5-10.8v-27.3h9.5v25.8c0,4.2,1.1,7.4,3.2,9.5c2.1,2.1,4.9,3.4,8.5,3.4s6.3-1.1,8.5-3.4
				c2.1-2.1,3.2-5.3,3.2-9.5v-25.8h9.5V319.1z"/>
			<path class="st2" d="M242.9,320.4c2.7,1.5,4.9,3.2,6.6,5.3v-6.8h9.7v46.9c0,4.2-0.8,8-2.7,11.4c-1.7,3.4-4.4,5.9-7.8,7.8
				c-3.4,1.9-7.4,2.7-12.1,2.7c-6.3,0-11.4-1.5-15.6-4.4c-4.2-3-6.6-7-7-12.1h9.5c0.6,2.3,2.3,4.4,4.7,5.9c2.3,1.5,5.3,2.3,8.5,2.3
				c3.8,0,7-1.3,9.3-3.6c2.3-2.3,3.6-5.7,3.6-10.2V358c-1.7,2.1-3.8,4-6.6,5.5s-5.9,2.3-9.5,2.3c-4,0-7.6-1.1-11-3
				c-3.4-2.1-5.9-4.9-7.8-8.7c-1.9-3.6-3-7.8-3-12.5c0-4.7,1.1-8.7,3-12.3c1.9-3.6,4.7-6.3,7.8-8.5c3.4-1.9,7-3,11-3
				C236.8,318.3,240,318.9,242.9,320.4z M247.4,333.7c-1.3-2.3-3-4.2-5.1-5.3c-2.1-1.3-4.4-1.9-7-1.9s-4.9,0.6-7,1.9
				c-2.1,1.3-3.8,3-5.1,5.3s-1.9,5.1-1.9,8.2s0.6,5.9,1.9,8.5c1.3,2.3,3,4.2,5.3,5.5c2.1,1.3,4.4,1.9,6.8,1.9c2.5,0,4.9-0.6,7-1.9
				c2.1-1.3,3.8-3,5.1-5.5c1.3-2.3,1.9-5.1,1.9-8.5C249.3,339,248.6,336.3,247.4,333.7z"/>
			<path class="st2" d="M337.4,320.6c3,1.5,5.1,3.8,6.8,6.8c1.7,3,2.5,6.6,2.5,10.8v27.3h-9.5v-26c0-4.2-1.1-7.4-3.2-9.5
				s-4.9-3.4-8.5-3.4c-3.6,0-6.3,1.1-8.5,3.4c-2.1,2.1-3.2,5.3-3.2,9.5v25.8h-9.5v-25.8c0-4.2-1.1-7.4-3.2-9.5
				c-2.1-2.1-4.9-3.4-8.5-3.4c-3.6,0-6.3,1.1-8.5,3.4c-2.1,2.1-3.2,5.3-3.2,9.5v25.8h-9.5v-46.3h9.5v5.3c1.5-1.9,3.6-3.4,5.9-4.4
				c2.3-1.1,5.1-1.7,7.8-1.7c3.6,0,7,0.8,9.9,2.3c3,1.5,5.1,3.8,6.8,6.8c1.5-2.7,3.6-5.1,6.6-6.8c3-1.7,6.1-2.5,9.5-2.5
				C331.3,318.3,334.5,319.1,337.4,320.6z"/>
			<path class="st2" d="M400.9,345.8h-35.3c0.2,3.6,1.7,6.8,4,8.9c2.5,2.3,5.5,3.4,9.1,3.4c5.1,0,8.9-2.1,11-6.6H400
				c-1.5,4.2-4,7.8-7.6,10.4c-3.6,2.7-8.2,4-13.7,4c-4.4,0-8.5-1.1-11.8-3c-3.6-1.9-6.3-4.9-8.2-8.5c-1.9-3.6-3-7.8-3-12.5
				c0-4.9,1.1-8.9,3-12.5c1.9-3.6,4.7-6.3,8.2-8.5c3.6-1.9,7.6-3,12.1-3c4.4,0,8.2,1.1,11.6,3c3.4,1.9,6.1,4.7,8,8
				c1.9,3.4,3,7.4,3,11.8C401.3,342.8,401.1,344.3,400.9,345.8z M391.4,337.9c0-3.6-1.3-6.3-3.8-8.5c-2.5-2.1-5.5-3.2-9.1-3.2
				c-3.4,0-6.1,1.1-8.5,3.2c-2.3,2.1-3.8,4.9-4.2,8.5H391.4z"/>
			<path class="st2" d="M443.8,320.6c3,1.5,5.1,3.8,6.8,6.8c1.7,3,2.5,6.6,2.5,10.8v27.3h-9.5v-26c0-4.2-1.1-7.4-3.2-9.5
				c-2.1-2.1-4.9-3.4-8.5-3.4c-3.6,0-6.3,1.1-8.5,3.4c-2.1,2.1-3.2,5.3-3.2,9.5v25.8h-9.5v-46.3h9.5v5.3c1.5-1.9,3.6-3.4,5.9-4.4
				c2.5-1.1,5.1-1.7,7.8-1.7C437.7,318.3,440.8,319.1,443.8,320.6z"/>
			<path class="st2" d="M476.4,326.7v25.6c0,1.7,0.4,3,1.3,3.8c0.8,0.8,2.1,1.1,4.2,1.1h5.9v8h-7.6c-4.2,0-7.6-1.1-9.9-3
				c-2.3-2.1-3.4-5.3-3.4-9.7v-25.8h-5.5v-7.8h5.5v-11.4h9.7v11.4h11.2v7.8H476.4z"/>
			<path class="st2" d="M496.9,311.1c-1.3-1.3-1.7-2.5-1.7-4.4s0.6-3.2,1.7-4.4c1.3-1.3,2.5-1.7,4.4-1.7c1.7,0,3.2,0.6,4.2,1.7
				c1.3,1.3,1.7,2.5,1.7,4.4s-0.6,3.2-1.7,4.4c-1.3,1.3-2.5,1.7-4.2,1.7C499.6,313,498.2,312.4,496.9,311.1z M506,319.1v46.3h-9.5
				v-46.3H506z"/>
			<path class="st2" d="M551.7,320.6c3,1.5,5.1,3.8,6.8,6.8c1.7,3,2.5,6.6,2.5,10.8v27.3h-9.5v-26c0-4.2-1.1-7.4-3.2-9.5
				s-4.9-3.4-8.5-3.4c-3.6,0-6.3,1.1-8.5,3.4c-2.1,2.1-3.2,5.3-3.2,9.5v25.8h-9.5v-46.3h9.5v5.3c1.5-1.9,3.6-3.4,5.9-4.4
				c2.5-1.1,5.1-1.7,7.8-1.7C545.5,318.3,548.9,319.1,551.7,320.6z"/>
			<path class="st2" d="M592.5,312.8v-8.7H610v61.3h-9.7V313h-7.8V312.8z"/>
		</g>
		<g>
			<g>
				<path class="st2" d="M419.7,229.3v3.6h-7v22.8h-4.4v-22.8h-7v-3.6H419.7z"/>
				<path class="st2" d="M443.2,246.8h-16.1c0.2,1.7,0.8,3,1.9,4c1.1,1.1,2.5,1.5,4,1.5c2.3,0,4-1.1,4.9-3h4.7
					c-0.6,1.9-1.7,3.6-3.4,4.7c-1.7,1.3-3.8,1.9-6.1,1.9c-1.9,0-3.8-0.4-5.3-1.3c-1.5-0.8-2.7-2.1-3.8-3.8c-0.8-1.7-1.3-3.6-1.3-5.7
					c0-2.1,0.4-4,1.3-5.7c0.8-1.7,2.1-3,3.6-3.8c1.5-0.8,3.4-1.3,5.5-1.3c1.9,0,3.8,0.4,5.3,1.3c1.5,0.8,2.7,2.1,3.6,3.6
					c0.8,1.5,1.3,3.4,1.3,5.3C443.4,245.3,443.2,246.2,443.2,246.8z M438.7,243.2c0-1.7-0.6-3-1.7-3.8c-1.1-1.1-2.5-1.5-4.2-1.5
					c-1.5,0-2.7,0.4-3.8,1.5c-1.1,0.8-1.7,2.3-1.9,3.8H438.7z"/>
				<path class="st2" d="M447.4,239.4c0.8-1.7,2.1-3,3.6-3.8c1.5-0.8,3.2-1.3,5.1-1.3c1.7,0,3.2,0.4,4.2,1.1c1.3,0.6,2.1,1.5,3,2.3
					v-3h4.4v20.9h-4.4v-3.2c-0.6,1.1-1.7,1.9-3,2.5c-1.3,0.6-2.7,1.1-4.4,1.1c-1.9,0-3.4-0.4-4.9-1.5c-1.5-0.8-2.7-2.1-3.6-3.8
					s-1.3-3.6-1.3-5.7C446.1,243,446.6,241.1,447.4,239.4z M462.4,241.3c-0.6-1.1-1.5-1.9-2.3-2.5c-1.1-0.6-1.9-0.8-3.2-0.8
					c-1.1,0-2.1,0.2-3.2,0.8c-1.1,0.6-1.7,1.3-2.3,2.3c-0.6,1.1-0.8,2.3-0.8,3.8s0.2,2.7,0.8,3.8c0.6,1.1,1.5,1.9,2.3,2.5
					c1.1,0.6,2.1,0.8,3.2,0.8s2.1-0.2,3.2-0.8c1.1-0.6,1.7-1.5,2.3-2.5c0.6-1.1,0.8-2.3,0.8-3.8
					C463.3,243.6,463.1,242.4,462.4,241.3z"/>
				<path class="st2" d="M503.2,235.4c1.3,0.6,2.3,1.7,3.2,3c0.8,1.3,1.1,3,1.1,4.9v12.3h-4.2v-11.6c0-1.9-0.4-3.4-1.5-4.2
					c-0.8-1.1-2.1-1.5-3.8-1.5s-3,0.4-3.8,1.5c-0.8,1.1-1.5,2.5-1.5,4.2v11.6h-4.2v-11.6c0-1.9-0.4-3.4-1.5-4.2
					c-0.8-1.1-2.1-1.5-3.8-1.5s-3,0.4-3.8,1.5c-0.8,1.1-1.5,2.5-1.5,4.2v11.6h-4.4v-20.9h4.4v2.3c0.6-0.8,1.7-1.5,2.7-2.1
					c1.1-0.4,2.3-0.6,3.6-0.6c1.7,0,3.2,0.4,4.4,1.1c1.3,0.6,2.3,1.7,3,3.2c0.6-1.3,1.7-2.3,3-3c1.3-0.8,2.7-1.1,4.4-1.1
					C500.5,234.3,501.8,234.5,503.2,235.4z"/>
			</g>
		</g>
		<g>
			<g>
				<path class="st2" d="M191.1,172.4c-2.5-4.4-5.9-8-10.6-10.4c-4.7-2.3-9.9-3.6-16.3-3.6c-10.8,0-19.5,3.6-25.8,10.6
					c-6.6,7-9.7,16.5-9.7,28.3c0,12.5,3.4,22.4,10.2,29.4c6.8,7,16.1,10.6,28.1,10.6c8.2,0,15-2.1,20.7-6.1
					c5.7-4.2,9.7-10.2,12.3-18h-42.1v-24.5h72.3v30.9c-2.5,8.2-6.6,16.1-12.5,23c-5.9,7.2-13.3,12.9-22.4,17.3
					c-9.1,4.4-19.2,6.6-30.7,6.6c-13.5,0-25.6-3-35.9-8.9c-10.6-5.9-18.8-14.2-24.7-24.5c-5.9-10.6-8.9-22.4-8.9-35.9
					s3-25.6,8.9-35.9c5.9-10.6,14.2-18.8,24.5-24.7c10.6-5.9,22.4-8.9,35.9-8.9c16.3,0,30,4,41.2,11.8c11.2,7.8,18.6,18.8,22.2,32.8
					h-36.8V172.4z"/>
				<path class="st2" d="M383.8,129.2v136.4h-33.2v-81.8l-30.5,81.8H293l-30.7-82v82h-33.2V129.2h39.3l38.3,94.5l37.9-94.5H383.8z"
					/>
			</g>
		</g>
	</g>
</g>
</svg>
